<svg width="135" height="24" viewBox="0 0 135 24" fill="none" xmlns="http://www.w3.org/2000/svg">
<path d="M11.3146 1.45847C11.382 1.29178 11.618 1.29178 11.6854 1.45847L14.4409 8.27199C14.4695 8.34284 14.5361 8.39116 14.6123 8.39652L21.9438 8.91164C22.1232 8.92424 22.1961 9.14869 22.0584 9.26432L16.4299 13.9904C16.3713 14.0396 16.3459 14.1178 16.3644 14.1919L18.1401 21.3238C18.1835 21.4983 17.9926 21.637 17.84 21.5418L11.6059 17.6491C11.5411 17.6087 11.4589 17.6087 11.3941 17.6491L5.15995 21.5418C5.00744 21.637 4.81651 21.4983 4.85995 21.3238L6.63561 14.1919C6.65407 14.1178 6.62866 14.0396 6.57014 13.9904L0.941586 9.26432C0.803886 9.14869 0.876815 8.92424 1.05618 8.91164L8.38771 8.39652C8.46394 8.39116 8.53046 8.34284 8.55911 8.27199L11.3146 1.45847Z" fill="#AFAFA5"/>
<path d="M11.3146 0.45847C11.382 0.291781 11.618 0.291782 11.6854 0.458471L14.4409 7.27199C14.4695 7.34284 14.5361 7.39116 14.6123 7.39652L21.9438 7.91164C22.1232 7.92424 22.1961 8.14869 22.0584 8.26432L16.4299 12.9904C16.3713 13.0396 16.3459 13.1178 16.3644 13.1919L18.1401 20.3238C18.1835 20.4983 17.9926 20.637 17.84 20.5418L11.6059 16.6491C11.5411 16.6087 11.4589 16.6087 11.3941 16.6491L5.15995 20.5418C5.00744 20.637 4.81651 20.4983 4.85995 20.3238L6.63561 13.1919C6.65407 13.1178 6.62866 13.0396 6.57014 12.9904L0.941586 8.26432C0.803886 8.14869 0.876815 7.92424 1.05618 7.91164L8.38771 7.39652C8.46394 7.39116 8.53046 7.34284 8.55911 7.27199L11.3146 0.45847Z" fill="#FFCE32"/>
<path d="M39.3146 1.45847C39.382 1.29178 39.618 1.29178 39.6854 1.45847L42.4409 8.27199C42.4695 8.34284 42.5361 8.39116 42.6123 8.39652L49.9438 8.91164C50.1232 8.92424 50.1961 9.14869 50.0584 9.26432L44.4299 13.9904C44.3713 14.0396 44.3459 14.1178 44.3644 14.1919L46.1401 21.3238C46.1835 21.4983 45.9926 21.637 45.84 21.5418L39.6059 17.6491C39.5411 17.6087 39.4589 17.6087 39.3941 17.6491L33.16 21.5418C33.0074 21.637 32.8165 21.4983 32.86 21.3238L34.6356 14.1919C34.6541 14.1178 34.6287 14.0396 34.5701 13.9904L28.9416 9.26432C28.8039 9.14869 28.8768 8.92424 29.0562 8.91164L36.3877 8.39652C36.4639 8.39116 36.5305 8.34284 36.5591 8.27199L39.3146 1.45847Z" fill="#AFAFA5"/>
<path d="M39.3146 0.45847C39.382 0.291781 39.618 0.291782 39.6854 0.458471L42.4409 7.27199C42.4695 7.34284 42.5361 7.39116 42.6123 7.39652L49.9438 7.91164C50.1232 7.92424 50.1961 8.14869 50.0584 8.26432L44.4299 12.9904C44.3713 13.0396 44.3459 13.1178 44.3644 13.1919L46.1401 20.3238C46.1835 20.4983 45.9926 20.637 45.84 20.5418L39.6059 16.6491C39.5411 16.6087 39.4589 16.6087 39.3941 16.6491L33.16 20.5418C33.0074 20.637 32.8165 20.4983 32.86 20.3238L34.6356 13.1919C34.6541 13.1178 34.6287 13.0396 34.5701 12.9904L28.9416 8.26432C28.8039 8.14869 28.8768 7.92424 29.0562 7.91164L36.3877 7.39652C36.4639 7.39116 36.5305 7.34284 36.5591 7.27199L39.3146 0.45847Z" fill="#FFCE32"/>
<path d="M67.3146 1.45847C67.382 1.29178 67.618 1.29178 67.6854 1.45847L70.4409 8.27199C70.4695 8.34284 70.5361 8.39116 70.6123 8.39652L77.9438 8.91164C78.1232 8.92424 78.1961 9.14869 78.0584 9.26432L72.4299 13.9904C72.3713 14.0396 72.3459 14.1178 72.3644 14.1919L74.1401 21.3238C74.1835 21.4983 73.9926 21.637 73.84 21.5418L67.6059 17.6491C67.5411 17.6087 67.4589 17.6087 67.3941 17.6491L61.16 21.5418C61.0074 21.637 60.8165 21.4983 60.86 21.3238L62.6356 14.1919C62.6541 14.1178 62.6287 14.0396 62.5701 13.9904L56.9416 9.26432C56.8039 9.14869 56.8768 8.92424 57.0562 8.91164L64.3877 8.39652C64.4639 8.39116 64.5305 8.34284 64.5591 8.27199L67.3146 1.45847Z" fill="#AFAFA5"/>
<path d="M67.3146 0.45847C67.382 0.291781 67.618 0.291782 67.6854 0.458471L70.4409 7.27199C70.4695 7.34284 70.5361 7.39116 70.6123 7.39652L77.9438 7.91164C78.1232 7.92424 78.1961 8.14869 78.0584 8.26432L72.4299 12.9904C72.3713 13.0396 72.3459 13.1178 72.3644 13.1919L74.1401 20.3238C74.1835 20.4983 73.9926 20.637 73.84 20.5418L67.6059 16.6491C67.5411 16.6087 67.4589 16.6087 67.3941 16.6491L61.16 20.5418C61.0074 20.637 60.8165 20.4983 60.86 20.3238L62.6356 13.1919C62.6541 13.1178 62.6287 13.0396 62.5701 12.9904L56.9416 8.26432C56.8039 8.14869 56.8768 7.92424 57.0562 7.91164L64.3877 7.39652C64.4639 7.39116 64.5305 7.34284 64.5591 7.27199L67.3146 0.45847Z" fill="#FFCE32"/>
<path d="M95.3146 1.45847C95.382 1.29178 95.618 1.29178 95.6854 1.45847L98.4409 8.27199C98.4695 8.34284 98.5361 8.39116 98.6123 8.39652L105.944 8.91164C106.123 8.92424 106.196 9.14869 106.058 9.26432L100.43 13.9904C100.371 14.0396 100.346 14.1178 100.364 14.1919L102.14 21.3238C102.183 21.4983 101.993 21.637 101.84 21.5418L95.6059 17.6491C95.5411 17.6087 95.4589 17.6087 95.3941 17.6491L89.16 21.5418C89.0074 21.637 88.8165 21.4983 88.86 21.3238L90.6356 14.1919C90.6541 14.1178 90.6287 14.0396 90.5701 13.9904L84.9416 9.26432C84.8039 9.14869 84.8768 8.92424 85.0562 8.91164L92.3877 8.39652C92.4639 8.39116 92.5305 8.34284 92.5591 8.27199L95.3146 1.45847Z" fill="#AFAFA5"/>
<path d="M95.3146 0.45847C95.382 0.291781 95.618 0.291782 95.6854 0.458471L98.4409 7.27199C98.4695 7.34284 98.5361 7.39116 98.6123 7.39652L105.944 7.91164C106.123 7.92424 106.196 8.14869 106.058 8.26432L100.43 12.9904C100.371 13.0396 100.346 13.1178 100.364 13.1919L102.14 20.3238C102.183 20.4983 101.993 20.637 101.84 20.5418L95.6059 16.6491C95.5411 16.6087 95.4589 16.6087 95.3941 16.6491L89.16 20.5418C89.0074 20.637 88.8165 20.4983 88.86 20.3238L90.6356 13.1919C90.6541 13.1178 90.6287 13.0396 90.5701 12.9904L84.9416 8.26432C84.8039 8.14869 84.8768 7.92424 85.0562 7.91164L92.3877 7.39652C92.4639 7.39116 92.5305 7.34284 92.5591 7.27199L95.3146 0.45847Z" fill="#EBEBE6"/>
<path d="M123.315 1.45847C123.382 1.29178 123.618 1.29178 123.685 1.45847L126.441 8.27199C126.47 8.34284 126.536 8.39116 126.612 8.39652L133.944 8.91164C134.123 8.92424 134.196 9.14869 134.058 9.26432L128.43 13.9904C128.371 14.0396 128.346 14.1178 128.364 14.1919L130.14 21.3238C130.183 21.4983 129.993 21.637 129.84 21.5418L123.606 17.6491C123.541 17.6087 123.459 17.6087 123.394 17.6491L117.16 21.5418C117.007 21.637 116.817 21.4983 116.86 21.3238L118.636 14.1919C118.654 14.1178 118.629 14.0396 118.57 13.9904L112.942 9.26432C112.804 9.14869 112.877 8.92424 113.056 8.91164L120.388 8.39652C120.464 8.39116 120.53 8.34284 120.559 8.27199L123.315 1.45847Z" fill="#AFAFA5"/>
<path d="M123.315 0.45847C123.382 0.291781 123.618 0.291782 123.685 0.458471L126.441 7.27199C126.47 7.34284 126.536 7.39116 126.612 7.39652L133.944 7.91164C134.123 7.92424 134.196 8.14869 134.058 8.26432L128.43 12.9904C128.371 13.0396 128.346 13.1178 128.364 13.1919L130.14 20.3238C130.183 20.4983 129.993 20.637 129.84 20.5418L123.606 16.6491C123.541 16.6087 123.459 16.6087 123.394 16.6491L117.16 20.5418C117.007 20.637 116.817 20.4983 116.86 20.3238L118.636 13.1919C118.654 13.1178 118.629 13.0396 118.57 12.9904L112.942 8.26432C112.804 8.14869 112.877 7.92424 113.056 7.91164L120.388 7.39652C120.464 7.39116 120.53 7.34284 120.559 7.27199L123.315 0.45847Z" fill="#EBEBE6"/>
</svg>
