<svg width="21" height="20" viewBox="0 0 21 20" fill="none" xmlns="http://www.w3.org/2000/svg">
<path d="M20.4115 3.89744C20.3613 3.23605 20.0744 2.6149 19.6035 2.14777C19.1326 1.68064 18.5092 1.39879 17.8474 1.35385C17.1808 1.30256 16.4218 1.25128 15.6218 1.21026V3.33333C15.6218 3.80936 15.4327 4.2659 15.0961 4.6025C14.7595 4.9391 14.303 5.12821 13.8269 5.12821C13.3509 5.12821 12.8944 4.9391 12.5578 4.6025C12.2212 4.2659 12.0321 3.80936 12.0321 3.33333V1.02564H9.46795V3.33333C9.46795 3.80936 9.27885 4.2659 8.94224 4.6025C8.60564 4.9391 8.14911 5.12821 7.67308 5.12821C7.19705 5.12821 6.74051 4.9391 6.40391 4.6025C6.06731 4.2659 5.87821 3.80936 5.87821 3.33333V1.21026C5.07821 1.21026 4.31923 1.30256 3.64231 1.35385C2.98481 1.39788 2.36546 1.67841 1.89872 2.14359C1.42761 2.61251 1.14014 3.23474 1.08846 3.89744C0.934615 5.79487 0.75 8.49231 0.75 10.5128C0.75 12.5333 0.934615 15.2308 1.08846 17.1385C1.14076 17.7964 1.42718 18.4138 1.89575 18.8786C2.36432 19.3434 2.98398 19.6248 3.64231 19.6718C5.3141 19.7949 8.44231 20 10.75 20C13.0577 20 16.1859 19.7949 17.8474 19.6718C18.5076 19.6272 19.1297 19.3468 19.6004 18.8817C20.0711 18.4167 20.3589 17.798 20.4115 17.1385C20.5654 15.2308 20.75 12.5333 20.75 10.5128C20.75 8.49231 20.5654 5.79487 20.4115 3.89744ZM10.75 13.8462H6.64744C6.44342 13.8462 6.24777 13.7651 6.10351 13.6209C5.95925 13.4766 5.87821 13.2809 5.87821 13.0769C5.87821 12.8729 5.95925 12.6773 6.10351 12.533C6.24777 12.3887 6.44342 12.3077 6.64744 12.3077H10.75C10.954 12.3077 11.1497 12.3887 11.2939 12.533C11.4382 12.6773 11.5192 12.8729 11.5192 13.0769C11.5192 13.2809 11.4382 13.4766 11.2939 13.6209C11.1497 13.7651 10.954 13.8462 10.75 13.8462ZM14.8526 9.74359H6.64744C6.44342 9.74359 6.24777 9.66255 6.10351 9.51829C5.95925 9.37403 5.87821 9.17837 5.87821 8.97436C5.87821 8.77035 5.95925 8.57469 6.10351 8.43043C6.24777 8.28617 6.44342 8.20513 6.64744 8.20513H10.75H14.8526C15.0566 8.20513 15.2522 8.28617 15.3965 8.43043C15.5408 8.57469 15.6218 8.77035 15.6218 8.97436C15.6218 9.17837 15.5408 9.37403 15.3965 9.51829C15.2522 9.66255 15.0566 9.74359 14.8526 9.74359Z" fill="white"/>
<path d="M8.44231 0.769231V3.33333C8.44231 3.53735 8.36126 3.733 8.21701 3.87726C8.07275 4.02152 7.87709 4.10256 7.67308 4.10256C7.46906 4.10256 7.27341 4.02152 7.12915 3.87726C6.98489 3.733 6.90385 3.53735 6.90385 3.33333V0.769231C6.90385 0.565218 6.98489 0.369561 7.12915 0.225302C7.27341 0.0810437 7.46906 0 7.67308 0C7.87709 0 8.07275 0.0810437 8.21701 0.225302C8.36126 0.369561 8.44231 0.565218 8.44231 0.769231Z" fill="white"/>
<path d="M14.5962 0.769231V3.33333C14.5962 3.53735 14.5151 3.733 14.3709 3.87726C14.2266 4.02152 14.0309 4.10256 13.8269 4.10256C13.6229 4.10256 13.4273 4.02152 13.283 3.87726C13.1387 3.733 13.0577 3.53735 13.0577 3.33333V0.769231C13.0577 0.565218 13.1387 0.369561 13.283 0.225302C13.4273 0.0810437 13.6229 0 13.8269 0C14.0309 0 14.2266 0.0810437 14.3709 0.225302C14.5151 0.369561 14.5962 0.565218 14.5962 0.769231Z" fill="white"/>
</svg>
