<svg width="18" height="18" viewBox="0 0 18 18" fill="none" xmlns="http://www.w3.org/2000/svg">
<path d="M11.9488 8.57495C13.8292 8.57495 15.3676 7.04434 15.3676 5.17359C15.3676 3.30284 13.8292 1.77223 11.9488 1.77223C11.8633 1.77223 11.7779 1.77223 11.6924 1.77223C12.2052 2.62257 12.5471 3.64298 12.5471 4.66339C12.5471 6.10897 11.9488 7.46951 11.0086 8.48992C11.2651 8.57495 11.6069 8.57495 11.9488 8.57495Z" fill="#271515"/>
<path d="M13.4018 10.3605H12.5471C13.8292 11.466 14.6839 13.1667 14.6839 15.0374C14.6839 15.4626 14.5984 15.8027 14.513 16.1429C15.6241 15.9728 16.3078 15.7177 16.7352 15.4626C17.1625 15.2075 17.3335 14.7823 17.3335 14.2721C17.3335 12.1463 15.5386 10.3605 13.4018 10.3605Z" fill="#271515"/>
<path d="M6.82057 8.57491C7.84621 8.57491 8.70092 8.23478 9.47015 7.5545C10.3248 6.87423 10.7522 5.76879 10.7522 4.66335C10.7522 3.81301 10.4958 2.96267 9.98297 2.36743C9.2992 1.34702 8.18809 0.666748 6.82057 0.666748C4.68382 0.666748 2.88895 2.45246 2.88895 4.57831C2.88895 6.7892 4.68382 8.57491 6.82057 8.57491Z" fill="#271515"/>
<path d="M9.12829 10.6158C8.87188 10.6158 8.70094 10.5308 8.44453 10.5308H5.19666C2.71803 10.5308 0.666748 12.5716 0.666748 15.0376C0.666748 15.6328 0.923158 16.058 1.35051 16.3981C2.03427 16.8233 3.6582 17.3335 6.82059 17.3335C9.98299 17.3335 11.5214 16.8233 12.2907 16.3981C12.2907 16.3981 12.3761 16.3131 12.4616 16.3131C12.8035 16.058 13.0599 15.6328 13.0599 15.0376C12.9744 12.8267 11.3505 10.9559 9.12829 10.6158Z" fill="#271515"/>
</svg>
