<svg width="20" height="16" viewBox="0 0 20 16" fill="none" xmlns="http://www.w3.org/2000/svg">
<path d="M20 4.58532V13.0731C20 14.439 18.8733 15.6097 17.4394 15.7073C15.2884 15.9024 12.3181 16 10.0648 16C7.81147 16 4.84116 15.8048 2.69025 15.7073C1.25631 15.6097 0.129639 14.439 0.129639 13.0731V4.58532L1.666 5.36581L8.73329 9.07312C9.14299 9.26824 9.65511 9.3658 10.0648 9.3658C10.4745 9.3658 10.9866 9.26824 11.3963 9.07312L18.4636 5.36581L20 4.58532Z" fill="#AFAFA5"/>
<path d="M19.8976 2.43902C19.8976 2.63415 19.7952 2.92683 19.5903 3.02439L18.3612 3.60976L10.577 7.70732C10.1673 7.90244 9.75756 7.90244 9.34786 7.70732L0.334517 3.02439C0.129668 2.92683 -0.0751809 2.73171 0.0272435 2.53659C0.232092 1.36585 1.25634 0.390244 2.58785 0.292683C4.73877 0.0975609 7.70907 0 9.96241 0C12.2157 0 15.2885 0.195122 17.337 0.292683C18.6685 0.390244 19.6927 1.26829 19.8976 2.43902Z" fill="#AFAFA5"/>
</svg>
