<svg width="20" height="12" viewBox="0 0 20 12" fill="none" xmlns="http://www.w3.org/2000/svg">
<path d="M10 0C6.34375 0 3.49554 2.17857 0 5.71429C3.00893 8.73661 5.53571 11.4286 10 11.4286C14.4598 11.4286 17.7411 8.01786 20 5.77678C17.6875 3.15179 14.4107 0 10 0ZM10 9.79018C7.79464 9.79018 6 7.95982 6 5.71429C6 3.46429 7.79464 1.63839 10 1.63839C12.2054 1.63839 14 3.46875 14 5.71429C14 7.96429 12.2054 9.79018 10 9.79018Z" fill="#EBEBE6"/>
<path d="M9.99986 4.28585C9.99986 3.93318 10.1293 3.61175 10.3391 3.36175C10.2275 3.34389 10.1159 3.33496 9.99986 3.33496C8.71415 3.33496 7.66504 4.40193 7.66504 5.71443C7.66504 7.02693 8.71415 8.09389 9.99986 8.09389C11.2856 8.09389 12.3347 7.02693 12.3347 5.71443C12.3347 5.61175 12.3258 5.50907 12.3168 5.40639C12.0713 5.59835 11.7677 5.71443 11.4329 5.71443C10.6383 5.71443 9.99986 5.07603 9.99986 4.28585Z" fill="#EBEBE6"/>
</svg>
