<svg width="24" height="24" viewBox="0 0 24 24" fill="none" xmlns="http://www.w3.org/2000/svg">
<path d="M5.3189 14.5034L4.4835 17.6221L1.43011 17.6867C0.517593 15.9941 0 14.0577 0 11.9999C0 10.01 0.483937 8.1335 1.34175 6.4812H1.34241L4.06078 6.97958L5.25159 9.68164C5.00235 10.4082 4.86651 11.1882 4.86651 11.9999C4.86661 12.8808 5.02617 13.7247 5.3189 14.5034Z" fill="white"/>
<path d="M23.7902 9.7583C23.928 10.4842 23.9998 11.2339 23.9998 12C23.9998 12.8592 23.9095 13.6972 23.7374 14.5056C23.1533 17.2563 21.6269 19.6583 19.5124 21.3581L19.5118 21.3574L16.0878 21.1827L15.6032 18.1576C17.0063 17.3348 18.1028 16.0471 18.6804 14.5056H12.2637V9.7583H18.774H23.7902Z" fill="white"/>
<path d="M19.5119 21.3572L19.5126 21.3579C17.4561 23.0108 14.8438 23.9999 12.0001 23.9999C7.43017 23.9999 3.457 21.4456 1.43018 17.6867L5.31897 14.5034C6.33236 17.208 8.94137 19.1333 12.0001 19.1333C13.3148 19.1333 14.5464 18.7779 15.6033 18.1575L19.5119 21.3572Z" fill="white"/>
<path d="M19.6596 2.76262L15.7721 5.94525C14.6783 5.26153 13.3853 4.86656 12 4.86656C8.87212 4.86656 6.21431 6.88017 5.25168 9.68174L1.34245 6.48131H1.3418C3.33895 2.63076 7.36223 0 12 0C14.9117 0 17.5813 1.03716 19.6596 2.76262Z" fill="white"/>
</svg>
