<svg width="20" height="20" viewBox="0 0 20 20" fill="none" xmlns="http://www.w3.org/2000/svg">
<path d="M18.2383 12.7487C18.1078 14.1929 17.898 15.3665 17.6427 16.4136C17.4726 17.4607 16.4516 18.3333 15.3455 18.3333H13.9842C13.2185 18.3333 12.6229 17.7225 12.6229 16.9372V13.3595C12.6229 12.4869 11.9422 11.7888 11.0914 11.7888H9.1345C8.28367 11.7888 7.60301 12.4869 7.60301 13.3595V16.9372C7.60301 17.7225 7.00743 18.3333 6.24169 18.3333H4.62512C3.51905 18.3333 2.58315 17.548 2.3279 16.4136C2.07265 15.2792 1.85134 14.1939 1.73232 12.7487C1.58126 10.9145 1.73232 9.17104 1.8174 8.03666C1.8174 7.33858 2.24282 6.64049 2.83839 6.20419L8.79417 2.10297C9.1345 1.84119 9.55991 1.66667 9.98532 1.66667C10.4107 1.66667 10.9212 1.84119 11.2616 2.10297L17.2173 6.20419C17.8129 6.64049 18.2383 7.33858 18.2383 8.03666C18.3234 9.17104 18.4039 10.9161 18.2383 12.7487Z" fill="#AFAFA5"/>
</svg>
