<svg width="16" height="16" viewBox="0 0 16 16" fill="none" xmlns="http://www.w3.org/2000/svg">
<path d="M12.6716 3.34714C11.5037 2.09714 9.7862 1.33325 8 1.33325C6.2138 1.33325 4.4963 2.0277 3.32839 3.34714C2.36659 4.45825 1.88569 5.84714 2.02309 7.23603C2.02309 7.51381 2.09179 7.79158 2.16049 7.99992C2.77879 10.9166 5.939 13.486 7.313 14.4583C7.5191 14.5971 7.7252 14.6666 8 14.6666C8.2748 14.6666 8.4809 14.5971 8.687 14.4583C9.9923 13.486 13.2212 10.9166 13.8395 7.99992C13.9082 7.79158 13.9082 7.51381 13.9769 7.23603C14.1143 5.84714 13.6334 4.45825 12.6716 3.34714ZM8 9.31936C6.9695 9.31936 6.0764 8.48603 6.0764 7.37492C6.0764 6.26381 6.9008 5.43047 8 5.43047C9.0992 5.43047 9.9236 6.26381 9.9236 7.37492C9.9236 8.48603 9.0305 9.31936 8 9.31936Z" fill="#FF9292"/>
</svg>
