<svg width="50" height="50" viewBox="0 0 50 50" fill="none" xmlns="http://www.w3.org/2000/svg">
<circle cx="25" cy="25" r="25" fill="#FF9292"/>
<path d="M23.3699 22.5676C23.9189 22.5676 24.3639 22.1271 24.3639 21.5836C24.3639 21.0402 23.9189 20.5996 23.3699 20.5996C22.821 20.5996 22.376 21.0402 22.376 21.5836C22.376 22.1271 22.821 22.5676 23.3699 22.5676Z" fill="white"/>
<path d="M27.5398 22.5676C28.0888 22.5676 28.5338 22.1271 28.5338 21.5836C28.5338 21.0402 28.0888 20.5996 27.5398 20.5996C26.9909 20.5996 26.5459 21.0402 26.5459 21.5836C26.5459 22.1271 26.9909 22.5676 27.5398 22.5676Z" fill="white"/>
<path d="M23.2483 25.7121C23.515 25.8801 23.8543 25.8081 24.024 25.5441C24.2907 25.1121 24.8483 24.8721 25.4786 24.8721C26.0847 24.8721 26.6422 25.1361 26.9331 25.5441C27.1028 25.8081 27.4422 25.8801 27.7089 25.7121C27.9756 25.5441 28.0483 25.2081 27.8786 24.9441C27.3937 24.2001 26.4725 23.7441 25.4786 23.7441C24.4847 23.7441 23.5634 24.2001 23.0786 24.9441C22.9089 25.1841 22.9816 25.5441 23.2483 25.7121Z" fill="white"/>
<path d="M31.2485 29.9841H28.9697L28.6788 28.8801C31.2242 29.0961 33.1394 28.9761 32.6061 23.6721C32.9455 23.3121 33.1152 22.8081 33.1152 22.0881C33.1152 21.2001 32.897 20.5761 32.4606 20.1681C32.3394 20.0721 32.1939 19.9761 32 19.8801C30.6909 13.9041 26.2788 14.0001 25.4788 14.0001C24.6788 14.0001 20.2424 13.9281 18.9576 19.9041C18.7394 19.9761 18.5939 20.0961 18.4727 20.1921C18.0364 20.5761 17.8182 21.2001 17.8182 22.1121C17.8182 22.8321 17.9879 23.3601 18.3273 23.6961C17.7939 28.9521 19.7091 29.0961 22.2303 28.8801L21.9394 29.9841H19.6606C17.6485 29.9841 16 31.5921 16 33.5841V35.8401C16 36.3681 16.4364 36.8001 16.9697 36.8001H33.9394C34.4727 36.8001 34.9091 36.3681 34.9091 35.8401V33.5841C34.8848 31.5921 33.2606 29.9841 31.2485 29.9841ZM20.3152 23.7681C20.2909 23.4321 20 23.1441 19.6606 23.1201C19.2485 23.0721 18.9333 23.0481 18.9333 22.1121C18.9333 21.3921 19.103 21.1281 19.2 21.0321C19.2242 21.0081 19.2485 20.9841 19.3212 20.9601C19.3697 21.1761 19.5394 21.3441 19.7818 21.3921C20.097 21.4401 20.3879 21.2481 20.4364 20.9361C20.5333 20.4081 20.6788 19.9281 20.8485 19.4721C21.7939 19.5681 23.2242 19.2561 24.703 18.5601C25.4545 18.2001 26.1091 17.7921 26.6667 17.3841C26.8848 17.6001 27.1273 17.8401 27.3939 18.0561C28.3394 18.8241 29.3333 19.3281 30.0606 19.4481C30.2303 19.9041 30.4 20.3841 30.497 20.9361C30.5455 21.2001 30.7879 21.3921 31.0545 21.3921C31.0788 21.3921 31.1273 21.3921 31.1515 21.3921C31.3939 21.3441 31.5636 21.1761 31.6121 20.9601C31.6848 20.9841 31.7091 21.0081 31.7333 21.0321C31.8303 21.1281 32 21.3921 32 22.1121C32 23.0481 31.6848 23.0721 31.2727 23.1201C30.9333 23.1441 30.6424 23.4321 30.6182 23.7681C30.4727 25.2081 29.5515 26.5041 27.9273 27.6321C26.497 28.6401 24.4606 28.6401 23.0303 27.6321C21.3576 26.4801 20.4606 25.1841 20.3152 23.7681ZM27.5636 31.5201L26.0606 32.6241C25.697 32.8881 25.2121 32.8881 24.8485 32.6241L23.3455 31.5201C23.0061 31.2801 22.8606 30.8481 22.9818 30.4641L23.3697 29.0721C24.0242 29.3601 24.7273 29.5041 25.4545 29.5041C26.1818 29.5041 26.8848 29.3361 27.5394 29.0721L27.9273 30.4641C28.0242 30.8721 27.8788 31.2801 27.5636 31.5201Z" fill="white"/>
</svg>
