<svg width="20" height="20" viewBox="0 0 20 20" fill="none" xmlns="http://www.w3.org/2000/svg">
<path d="M16.4056 4.04762C16.319 2.94217 15.4532 2.0068 14.3277 1.92177C13.1156 1.83673 11.2974 1.66666 9.9987 1.66666C8.7 1.66666 6.88181 1.83673 5.66969 2.0068C4.54415 2.09183 3.67835 2.94217 3.59177 4.04762C3.50519 5.40816 3.33203 8.04422 3.33203 10C3.33203 11.8707 3.50519 14.5068 3.59177 15.9524C3.67835 17.0578 4.54415 17.9932 5.66969 18.0782C6.88181 18.1633 8.7 18.3333 9.9987 18.3333C11.2974 18.3333 13.1156 18.1633 14.3277 18.0782C15.4532 17.9932 16.319 17.0578 16.4056 15.9524C16.4922 14.5918 16.6654 11.9558 16.6654 10C16.6654 8.04422 16.4922 5.4932 16.4056 4.04762ZM9.9987 4.89796C10.4316 4.89796 10.8645 5.32313 10.8645 5.7483C10.8645 6.17347 10.4316 6.59864 9.9987 6.59864C9.5658 6.59864 9.1329 6.17347 9.1329 5.7483C9.1329 5.32313 9.5658 4.89796 9.9987 4.89796ZM10.8645 14.932H9.1329C8.78658 14.932 8.44026 14.6769 8.44026 14.2517C8.44026 13.8265 8.7 13.5714 9.1329 13.5714H10.8645C11.2108 13.5714 11.5571 13.8265 11.5571 14.2517C11.5571 14.6769 11.2108 14.932 10.8645 14.932Z" fill="#AFAFA5"/>
</svg>
