<svg width="37" height="37" viewBox="0 0 37 37" fill="none" xmlns="http://www.w3.org/2000/svg">
<g clip-path="url(#clip0_136_930)">
<path fill-rule="evenodd" clip-rule="evenodd" d="M6.51141 18.4854C6.51141 18.0196 6.88897 17.6421 7.35471 17.6421L17.6423 17.6421L17.6423 7.35442C17.6423 6.88869 18.0199 6.51113 18.4856 6.51113C18.9514 6.51113 19.3289 6.88869 19.3289 7.35442L19.3289 17.6421H29.6166C30.0823 17.6421 30.4599 18.0196 30.4599 18.4854C30.4599 18.9511 30.0823 19.3286 29.6166 19.3286H19.3289L19.3289 29.6163C19.3289 30.082 18.9514 30.4596 18.4856 30.4596C18.0199 30.4596 17.6423 30.082 17.6423 29.6163L17.6423 19.3286L7.35471 19.3286C6.88897 19.3286 6.51141 18.9511 6.51141 18.4854Z" fill="#AFAFA5"/>
</g>
<defs>
<clipPath id="clip0_136_930">
<rect width="26.1421" height="26.1421" fill="white" transform="translate(0 18.4854) rotate(-45)"/>
</clipPath>
</defs>
</svg>
