<svg width="26" height="26" viewBox="0 0 26 26" fill="none" xmlns="http://www.w3.org/2000/svg">
<g clip-path="url(#clip0_129_2208)">
<path fill-rule="evenodd" clip-rule="evenodd" d="M4.40836 12.9706C4.40836 12.6553 4.66397 12.3997 4.97928 12.3997L11.9441 12.3997L11.9441 5.43484C11.9441 5.11953 12.1997 4.86392 12.515 4.86392C12.8303 4.86392 13.0859 5.11953 13.0859 5.43484L13.0859 12.3997L20.0508 12.3997C20.3661 12.3997 20.6217 12.6553 20.6217 12.9706C20.6217 13.2859 20.3661 13.5415 20.0508 13.5415L13.0859 13.5415L13.0859 20.5063C13.0859 20.8216 12.8303 21.0772 12.515 21.0772C12.1997 21.0772 11.9441 20.8216 11.9441 20.5063L11.9441 13.5415L4.97928 13.5415C4.66397 13.5415 4.40836 13.2859 4.40836 12.9706Z" fill="#FF9292"/>
</g>
<defs>
<clipPath id="clip0_129_2208">
<rect width="17.6985" height="17.6985" fill="white" transform="translate(0 12.9706) rotate(-45)"/>
</clipPath>
</defs>
</svg>
