<svg width="20" height="20" viewBox="0 0 20 20" fill="none" xmlns="http://www.w3.org/2000/svg">
<path d="M17.0711 2.92849C13.1748 -0.967813 6.82523 -0.967813 2.92893 2.92849C-0.967372 6.82479 -0.96737 13.1743 2.92893 17.0706C6.82524 20.9669 13.1748 20.9669 17.0711 17.0706C20.9674 13.1743 20.9674 6.82479 17.0711 2.92849ZM10.7215 12.8857C10.7215 13.3186 10.3608 13.6794 9.92785 13.6794C9.71138 13.6072 9.56708 13.6072 9.42277 13.4629C9.27846 13.3186 9.20631 13.1022 9.20631 12.9579L9.20631 10.7933H7.0417C6.60877 10.7933 6.248 10.4325 6.248 9.99956C6.248 9.56664 6.60877 9.20587 7.0417 9.20587L9.20631 9.20587L9.20631 7.04125C9.20631 6.60833 9.56708 6.24756 10 6.24756C10.4329 6.24756 10.7937 6.60833 10.7937 7.04125L10.7937 9.20587L12.9583 9.20587C13.3912 9.20587 13.752 9.56664 13.752 9.99956C13.752 10.4325 13.3912 10.7933 12.9583 10.7933H10.7937L10.7215 12.8857Z" fill="#FF9292"/>
</svg>
