<svg width="50" height="50" viewBox="0 0 50 50" fill="none" xmlns="http://www.w3.org/2000/svg">
<path d="M42.6777 7.3222C32.9369 -2.41856 17.0631 -2.41856 7.32233 7.3222C-2.41843 17.063 -2.41843 32.9368 7.32233 42.6775C17.0631 52.4183 32.9369 52.4183 42.6777 42.6775C52.4184 32.9368 52.4184 17.063 42.6777 7.3222ZM26.8038 32.2152C26.8038 33.2976 25.9019 34.1995 24.8196 34.1995C24.2785 34.0191 23.9177 34.0191 23.5569 33.6583C23.1962 33.2976 23.0158 32.7564 23.0158 32.3956L23.0158 26.9841H17.6042C16.5219 26.9841 15.62 26.0822 15.62 24.9999C15.62 23.9176 16.5219 23.0156 17.6042 23.0156L23.0158 23.0156V17.6041C23.0158 16.5218 23.9177 15.6199 25 15.6199C26.0823 15.6199 26.9842 16.5218 26.9842 17.6041V23.0156L32.3958 23.0156C33.4781 23.0156 34.38 23.9176 34.38 24.9999C34.38 26.0822 33.4781 26.9841 32.3958 26.9841H26.9842L26.8038 32.2152Z" fill="#AFAFA5"/>
</svg>
