<svg width="66" height="66" viewBox="0 0 66 66" fill="none" xmlns="http://www.w3.org/2000/svg">
<circle cx="33" cy="33" r="32.5" stroke="#FFF8F8"/>
<circle cx="33" cy="33" r="30" fill="#FF9292"/>
<path d="M30.0769 23.4103C29.3589 23.2051 28.2307 23 27.4102 23C26.5897 23 25.4615 23.2051 24.7436 23.4103C24.0256 23.5128 23.5128 24.0256 23.4103 24.7436C23.2051 25.4615 23 26.5897 23 27.4102C23 28.2307 23.2051 29.3589 23.3077 30.0769C23.4103 30.7948 24.0256 31.3076 24.641 31.4102C25.359 31.5128 26.4872 31.7179 27.3077 31.7179C28.1282 31.7179 29.2564 31.5128 29.9743 31.4102C30.6923 31.3076 31.2051 30.6923 31.3077 30.0769C31.4102 29.3589 31.6153 28.2307 31.6153 27.4102C31.6153 26.5897 31.4102 25.4615 31.3077 24.7436C31.3077 24.0256 30.7948 23.5128 30.0769 23.4103Z" fill="white"/>
<path d="M30.0768 34.6923C29.3589 34.5897 28.2307 34.3846 27.4102 34.3846C26.5897 34.3846 25.4615 34.5897 24.7435 34.6923C24.0256 34.7949 23.5128 35.4102 23.4102 36.0256C23.3076 36.7436 23.1025 37.8718 23.1025 38.6923C23.1025 39.5128 23.3076 40.641 23.4102 41.3589C23.5128 42.0769 24.1281 42.5897 24.7435 42.6923C25.4615 42.7948 26.5897 43 27.4102 43C28.2307 43 29.3589 42.7948 30.0768 42.6923C30.7948 42.5897 31.3076 41.9743 31.4102 41.3589C31.5127 40.641 31.7179 39.5128 31.7179 38.6923C31.7179 37.8718 31.5127 36.7436 31.4102 36.0256C31.3076 35.3077 30.7948 34.7949 30.0768 34.6923Z" fill="white"/>
<path d="M36.0255 31.4104C36.7435 31.513 37.8717 31.7181 38.6922 31.7181C39.5127 31.7181 40.6409 31.513 41.3588 31.4104C42.0768 31.3078 42.5896 30.6925 42.6921 30.0771C42.7947 29.3591 42.9998 28.2309 42.9998 27.4104C42.9998 26.5899 42.7947 25.4617 42.6921 24.7438C42.5896 24.0258 41.9742 23.513 41.3588 23.4104C40.6409 23.3079 39.5127 23.1028 38.6922 23.1028C37.8717 23.1028 36.7435 23.3079 36.0255 23.4104C35.3076 23.513 34.7947 24.1284 34.6922 24.7438C34.5896 25.4617 34.3845 26.5899 34.3845 27.4104C34.3845 28.2309 34.5896 29.3591 34.6922 30.0771C34.7947 30.795 35.3076 31.3078 36.0255 31.4104Z" fill="white"/>
<path d="M41.3588 34.6923C40.6409 34.5897 39.5127 34.3846 38.6922 34.3846C37.8717 34.3846 36.7435 34.5897 36.0255 34.6923C35.3076 34.7949 34.7947 35.4102 34.6922 36.0256C34.5896 36.7436 34.3845 37.8718 34.3845 38.6923C34.3845 39.5128 34.5896 40.641 34.6922 41.3589C34.7947 42.0769 35.4101 42.5897 36.0255 42.6923C36.7435 42.7948 37.8717 43 38.6922 43C39.5127 43 40.6409 42.7948 41.3588 42.6923C42.0768 42.5897 42.5896 41.9743 42.6921 41.3589C42.7947 40.641 42.9998 39.5128 42.9998 38.6923C42.9998 37.8718 42.7947 36.7436 42.6921 36.0256C42.5896 35.3077 42.0768 34.7949 41.3588 34.6923Z" fill="white"/>
</svg>
