<svg width="15" height="14" viewBox="0 0 15 14" fill="none" xmlns="http://www.w3.org/2000/svg">
<path d="M7.31459 0.458471C7.382 0.291782 7.618 0.291782 7.68541 0.458471L9.40169 4.70234C9.43034 4.77318 9.49685 4.82151 9.57308 4.82686L14.1396 5.14771C14.319 5.16031 14.3919 5.38476 14.2542 5.50038L10.7484 8.44409C10.6899 8.49323 10.6645 8.57142 10.6829 8.64557L11.7889 13.0877C11.8323 13.2622 11.6414 13.4009 11.4889 13.3057L7.60593 10.8811C7.54111 10.8407 7.45889 10.8407 7.39407 10.8811L3.51109 13.3057C3.35858 13.4009 3.16765 13.2622 3.21109 13.0877L4.31708 8.64557C4.33554 8.57142 4.31013 8.49323 4.25161 8.44409L0.745813 5.50039C0.608113 5.38476 0.681041 5.16031 0.860403 5.14771L5.42692 4.82686C5.50315 4.82151 5.56966 4.77318 5.59831 4.70234L7.31459 0.458471Z" fill="#FFCE32"/>
</svg>
