<svg width="23" height="23" viewBox="0 0 23 23" fill="none" xmlns="http://www.w3.org/2000/svg">
<path fill-rule="evenodd" clip-rule="evenodd" d="M0.97742 11.9706C0.97742 11.543 1.32404 11.1964 1.75161 11.1964L11.1963 11.1964L11.1963 1.75175C11.1963 1.32417 11.5429 0.977554 11.9704 0.977555C12.398 0.977555 12.7446 1.32417 12.7446 1.75175L12.7446 11.1964H22.1893C22.6169 11.1964 22.9635 11.543 22.9635 11.9706C22.9635 12.3982 22.6169 12.7448 22.1893 12.7448H12.7446L12.7446 22.1894C12.7446 22.617 12.398 22.9636 11.9704 22.9636C11.5429 22.9636 11.1963 22.617 11.1963 22.1894L11.1963 12.7448L1.75161 12.7448C1.32404 12.7448 0.97742 12.3982 0.97742 11.9706Z" fill="white"/>
</svg>
