<svg width="24" height="25" viewBox="0 0 24 25" fill="none" xmlns="http://www.w3.org/2000/svg">
<path d="M16.3587 15.9758L16.3587 15.9758L8.57094 8.2497L8.2188 8.60466L8.57094 8.2497C8.32152 8.00225 7.90358 8.06826 7.74255 8.38051C7.74255 8.38052 7.74254 8.38052 7.74254 8.38053L2.39308 18.7535C1.28109 20.9098 3.58319 23.2268 5.74654 22.1287L16.2278 16.8086L16.0078 16.3752L16.2278 16.8086C16.5439 16.6482 16.6103 16.2254 16.3587 15.9758Z" fill="#DAADFF" stroke="black" stroke-linecap="round" stroke-linejoin="round"/>
<mask id="mask0_48_1018" style="mask-type:alpha" maskUnits="userSpaceOnUse" x="2" y="8" width="15" height="14">
<path d="M2.83747 18.9827L8.18694 8.60969C8.19313 8.59768 8.2092 8.59514 8.2188 8.60466L16.0065 16.3307C16.0162 16.3403 16.0136 16.3566 16.0015 16.3628L5.52024 21.6828C3.78956 22.5613 1.94788 20.7077 2.83747 18.9827Z" fill="#DAADFF"/>
</mask>
<g mask="url(#mask0_48_1018)">
<path d="M9.65039 9.23438V20.3568" stroke="#BB43BF" stroke-width="2" stroke-linecap="round" stroke-linejoin="round"/>
<path d="M13.1362 12.7827V18.0534" stroke="#BB43BF" stroke-width="2" stroke-linecap="round" stroke-linejoin="round"/>
<path d="M6.34863 10.6138V22.177" stroke="#BB43BF" stroke-width="2" stroke-linecap="round" stroke-linejoin="round"/>
<path d="M2.83105 16.6562V23.137" stroke="#BB43BF" stroke-width="2" stroke-linecap="round" stroke-linejoin="round"/>
</g>
<path d="M10.5931 9.51674L10.543 5.21045L12.1527 5.3669L10.5931 9.51674Z" fill="#1D1D1D"/>
<path d="M12.5394 11.5932L16.9321 5.68994L18.6008 7.27461L12.5394 11.5932Z" fill="#1D1D1D"/>
<path d="M18.7277 11.6876L14.7637 13.5774H18.7277V11.6876Z" fill="#1D1D1D"/>
<path d="M21.6556 3.33468C21.9631 2.74245 21.3462 2.09675 20.7406 2.37679L20.4402 2.51566C20.3626 2.55155 20.2708 2.53412 20.2117 2.47228L20.0075 2.25847C19.5331 1.76192 18.7018 2.17417 18.81 2.8523L18.8482 3.09126C18.8623 3.1797 18.8159 3.26673 18.7346 3.30431L18.4954 3.4149C17.8827 3.69819 17.9864 4.59904 18.6474 4.73576L18.9911 4.80686C19.0725 4.82369 19.135 4.88912 19.1481 4.9712L19.2034 5.31782C19.3098 5.98438 20.205 6.12912 20.516 5.53003L20.6374 5.29616C20.6786 5.21668 20.7677 5.17432 20.8554 5.19245L21.0924 5.24147C21.7648 5.38056 22.2147 4.569 21.7403 4.07245L21.5361 3.85864C21.477 3.7968 21.4638 3.70425 21.5032 3.62835L21.6556 3.33468Z" fill="#FDF724" stroke="black" stroke-width="0.5"/>
<path d="M11.9569 1.98288C11.8197 1.57345 11.2406 1.57345 11.1035 1.98288L10.9811 2.34835H10.5972C10.1579 2.34835 9.97891 2.91314 10.3379 3.16618L10.6366 3.3767L10.5203 3.72404C10.3822 4.13623 10.8509 4.48521 11.2062 4.23479L11.5302 4.00646L11.8541 4.23479C12.2095 4.48521 12.6781 4.13623 12.5401 3.72404L12.4237 3.3767L12.7224 3.16618C13.0815 2.91314 12.9024 2.34835 12.4632 2.34835H12.0793L11.9569 1.98288Z" fill="#FDF724" stroke="black" stroke-width="0.5"/>
<mask id="path-12-outside-1_48_1018" maskUnits="userSpaceOnUse" x="6.53223" y="3.95459" width="3" height="3" fill="black">
<rect fill="white" x="6.53223" y="3.95459" width="3" height="3"/>
<path d="M8.30455 5.46593C8.35942 5.30213 8.59223 5.30213 8.6471 5.46593C8.67126 5.53806 8.73895 5.58708 8.81502 5.58708H8.82427C8.99412 5.58708 9.06335 5.80548 8.92452 5.90333C8.86167 5.94763 8.83542 6.02817 8.85984 6.10108C8.91377 6.2621 8.73103 6.39943 8.59223 6.30161L8.57993 6.29294C8.5175 6.24894 8.43415 6.24894 8.37172 6.29294L8.35942 6.30161C8.22062 6.39943 8.03788 6.2621 8.09181 6.10108C8.11623 6.02817 8.08998 5.94763 8.02713 5.90333C7.8883 5.80548 7.95753 5.58708 8.12738 5.58708H8.13663C8.2127 5.58708 8.28039 5.53806 8.30455 5.46593Z"/>
</mask>
<path d="M8.30455 5.46593C8.35942 5.30213 8.59223 5.30213 8.6471 5.46593C8.67126 5.53806 8.73895 5.58708 8.81502 5.58708H8.82427C8.99412 5.58708 9.06335 5.80548 8.92452 5.90333C8.86167 5.94763 8.83542 6.02817 8.85984 6.10108C8.91377 6.2621 8.73103 6.39943 8.59223 6.30161L8.57993 6.29294C8.5175 6.24894 8.43415 6.24894 8.37172 6.29294L8.35942 6.30161C8.22062 6.39943 8.03788 6.2621 8.09181 6.10108C8.11623 6.02817 8.08998 5.94763 8.02713 5.90333C7.8883 5.80548 7.95753 5.58708 8.12738 5.58708H8.13663C8.2127 5.58708 8.28039 5.53806 8.30455 5.46593Z" fill="#FDF724"/>
<path d="M8.57993 6.29294L8.29189 6.70164L8.57993 6.29294ZM8.81502 6.08708H8.82427V5.08708H8.81502V6.08708ZM8.88027 5.89291L8.86798 5.88425L8.29189 6.70164L8.30418 6.7103L8.88027 5.89291ZM8.08367 5.88425L8.07138 5.89291L8.64747 6.7103L8.65976 6.70164L8.08367 5.88425ZM8.12738 6.08708H8.13663V5.08708H8.12738V6.08708ZM8.13663 6.08708C8.42905 6.08708 8.68668 5.89935 8.77866 5.62473L7.83044 5.30712C7.87411 5.17677 7.99636 5.08708 8.13663 5.08708V6.08708ZM8.31518 5.49464C8.57526 5.67794 8.44556 6.08708 8.12738 6.08708V5.08708C7.4695 5.08708 7.20134 5.93303 7.73909 6.31203L8.31518 5.49464ZM8.56592 6.25989C8.66024 5.9783 8.55933 5.66672 8.31518 5.49464L7.73909 6.31203C7.62064 6.22854 7.57222 6.07804 7.6177 5.94228L8.56592 6.25989ZM8.07138 5.89291C8.33364 5.70807 8.66296 5.97018 8.56592 6.25989L7.6177 5.94228C7.4128 6.55402 8.1076 7.09079 8.64747 6.7103L8.07138 5.89291ZM8.86798 5.88425C8.63281 5.71851 8.31884 5.71851 8.08367 5.88425L8.65976 6.70164C8.54946 6.77938 8.40219 6.77938 8.29189 6.70164L8.86798 5.88425ZM8.38573 6.25989C8.28869 5.97018 8.61801 5.70807 8.88027 5.89291L8.30418 6.7103C8.84405 7.09079 9.53885 6.55402 9.33395 5.94228L8.38573 6.25989ZM8.63647 5.49464C8.39232 5.66672 8.29141 5.9783 8.38573 6.25989L9.33395 5.94228C9.37943 6.07804 9.33101 6.22854 9.21256 6.31203L8.63647 5.49464ZM8.82427 6.08708C8.50609 6.08708 8.37639 5.67794 8.63647 5.49464L9.21256 6.31203C9.75031 5.93303 9.48215 5.08708 8.82427 5.08708V6.08708ZM8.17299 5.62473C8.26497 5.89935 8.5226 6.08708 8.81502 6.08708V5.08708C8.95529 5.08708 9.07754 5.17677 9.12121 5.30712L8.17299 5.62473ZM9.12121 5.30712C8.91397 4.6884 8.03768 4.6884 7.83044 5.30712L8.77866 5.62473C8.68115 5.91586 8.2705 5.91586 8.17299 5.62473L9.12121 5.30712Z" fill="black" mask="url(#path-12-outside-1_48_1018)"/>
<path d="M21.4168 11.4853C21.2797 11.0759 20.7005 11.0759 20.5634 11.4853M21.4168 11.4853L20.5634 11.4853M21.4168 11.4853L21.4561 11.6027M21.4168 11.4853L21.4561 11.6027M20.5634 11.4853L20.5241 11.6027H20.4091C19.9699 11.6027 19.7909 12.1675 20.1499 12.4205L20.231 12.4777L20.1978 12.5769C20.0597 12.9891 20.5284 13.3381 20.8837 13.0876L20.9901 13.0127L21.0965 13.0876C21.4518 13.3381 21.9205 12.9891 21.7824 12.5769L21.7492 12.4777L21.8303 12.4205C22.1893 12.1675 22.0103 11.6027 21.5711 11.6027H21.4561M20.5634 11.4853L21.4561 11.6027M21.7374 12.4424C21.7374 12.4424 21.7374 12.4424 21.7374 12.4424L21.7374 12.4424Z" fill="#FDF724" stroke="black" stroke-width="0.5"/>
<path d="M19.18 15.4525C19.2222 15.1194 18.8165 14.9237 18.5821 15.1642L18.4957 15.2528L18.3844 15.1992C18.0767 15.0508 17.7605 15.386 17.9265 15.6845L17.9805 15.7815L17.903 15.8611C17.667 16.1032 17.8774 16.506 18.211 16.4506L18.3406 16.4291L18.4045 16.5439C18.5688 16.8394 19.015 16.7532 19.0576 16.4178L19.0715 16.3077L19.181 16.2895C19.518 16.2335 19.5834 15.7773 19.2757 15.6289L19.1644 15.5753L19.18 15.4525Z" fill="#FDF724" stroke="black" stroke-width="0.5"/>
<path d="M15.3328 4.53797C15.375 4.2048 14.9693 4.00916 14.7349 4.24967L14.6486 4.33829L14.5373 4.28462C14.2295 4.13624 13.9133 4.47144 14.0794 4.77L14.1333 4.86699L14.0558 4.94652C13.8198 5.18865 14.0303 5.59147 14.3638 5.53607L14.4934 5.51453L14.5573 5.62937C14.7216 5.92485 15.1679 5.83869 15.2104 5.50328L15.2244 5.3931L15.3338 5.37492C15.6709 5.31893 15.7362 4.86277 15.4285 4.71439L15.3172 4.66072L15.3328 4.53797Z" fill="#FDF724" stroke="black" stroke-width="0.5"/>
<path d="M19.0374 9.04245C18.9003 8.63302 18.3211 8.63302 18.184 9.04245L18.1481 9.14965H18.0441C17.6049 9.14965 17.4259 9.71444 17.7849 9.96748L17.8571 10.0184L17.8273 10.1074C17.6892 10.5196 18.1579 10.8686 18.5132 10.6182L18.6107 10.5495L18.7082 10.6182C19.0635 10.8686 19.5322 10.5196 19.3941 10.1074L19.3643 10.0184L19.4365 9.96748C19.7955 9.71444 19.6165 9.14965 19.1773 9.14965H19.0733L19.0374 9.04245Z" fill="#FDF724" stroke="black" stroke-width="0.5"/>
</svg>
