<svg width="26" height="26" viewBox="0 0 26 26" fill="none" xmlns="http://www.w3.org/2000/svg">
<path fill-rule="evenodd" clip-rule="evenodd" d="M13 25C19.6274 25 25 19.6274 25 13C25 6.37258 19.6274 1 13 1C6.37258 1 1 6.37258 1 13C1 15.5367 1.78712 17.8896 3.13044 19.8277C3.2969 20.0679 3.36342 20.3653 3.30003 20.6505L2.98324 22.0761C2.81462 22.8348 3.53825 23.4875 4.27565 23.2417L5.43367 22.8557C5.74094 22.7532 6.07723 22.8083 6.34662 22.9882C8.25078 24.2591 10.5389 25 13 25Z" fill="#FFCF00"/>
<path d="M5.43367 22.8557L5.27556 22.3813L5.43367 22.8557ZM6.34662 22.9882L6.06905 23.404L6.34662 22.9882ZM4.27565 23.2417L4.43377 23.716L4.27565 23.2417ZM3.30003 20.6505L3.78812 20.759L3.30003 20.6505ZM24.5 13C24.5 19.3513 19.3513 24.5 13 24.5V25.5C19.9036 25.5 25.5 19.9036 25.5 13H24.5ZM13 1.5C19.3513 1.5 24.5 6.64873 24.5 13H25.5C25.5 6.09644 19.9036 0.5 13 0.5V1.5ZM1.5 13C1.5 6.64873 6.64873 1.5 13 1.5V0.5C6.09644 0.5 0.5 6.09644 0.5 13H1.5ZM3.54138 19.5429C2.25418 17.6857 1.5 15.4317 1.5 13H0.5C0.5 15.6417 1.32006 18.0935 2.7195 20.1126L3.54138 19.5429ZM3.47133 22.1845L3.78812 20.759L2.81193 20.5421L2.49514 21.9676L3.47133 22.1845ZM5.27556 22.3813L4.11754 22.7673L4.43377 23.716L5.59178 23.33L5.27556 22.3813ZM13 24.5C10.6407 24.5 8.44874 23.7901 6.6242 22.5723L6.06905 23.404C8.05283 24.7281 10.437 25.5 13 25.5V24.5ZM5.59178 23.33C5.74175 23.28 5.91826 23.3034 6.06905 23.404L6.6242 22.5723C6.2362 22.3133 5.74013 22.2265 5.27556 22.3813L5.59178 23.33ZM2.49514 21.9676C2.24222 23.1058 3.32766 24.0847 4.43377 23.716L4.11754 22.7673C3.74884 22.8902 3.38702 22.5639 3.47133 22.1845L2.49514 21.9676ZM2.7195 20.1126C2.81243 20.2466 2.8429 20.4027 2.81193 20.5421L3.78812 20.759C3.88394 20.3278 3.78137 19.8892 3.54138 19.5429L2.7195 20.1126Z" fill="black"/>
<g filter="url(#filter0_f_48_972)">
<ellipse cx="4.32283" cy="14.0893" rx="1.6" ry="0.8" transform="rotate(-10.9386 4.32283 14.0893)" fill="#FF8B72"/>
</g>
<g filter="url(#filter1_f_48_972)">
<ellipse rx="1.6" ry="0.8" transform="matrix(0.981831 0.189757 0.189757 -0.981831 21.1226 14.0889)" fill="#FF8B72"/>
</g>
<path d="M12.9996 20.2006C7.69981 20.2006 5.93321 15.8028 6.81651 15.4364C7.69981 15.07 9.97115 17.0006 12.9996 17.0006C16.0281 17.0006 18.2994 15.07 19.1827 15.4364C20.066 15.8028 18.2994 20.2006 12.9996 20.2006Z" fill="black"/>
<mask id="mask0_48_972" style="mask-type:alpha" maskUnits="userSpaceOnUse" x="6" y="15" width="14" height="6">
<path d="M12.9996 20.2004C7.69981 20.2004 5.93321 15.8026 6.81651 15.4362C7.69981 15.0698 9.97115 17.6351 12.9996 17.6351C16.0281 17.6351 18.2994 15.0698 19.1827 15.4362C20.066 15.8027 18.2994 20.2004 12.9996 20.2004Z" fill="black"/>
</mask>
<g mask="url(#mask0_48_972)">
<path d="M12.9999 18.8296C9.70845 18.8296 7.9713 20.201 7.51416 20.8867H18.4856C18.0284 20.201 16.2913 18.8296 12.9999 18.8296Z" fill="#D50B00"/>
</g>
<path d="M4.20005 8.99984C4.5096 7.45209 6.3413 7.77585 7.30546 8.16072C7.35764 8.18155 7.41681 8.15738 7.44371 8.10805C7.81854 7.42054 9.45301 6.25279 10.6001 7.39988C11.7913 8.59111 10.3547 11.4904 9.0293 12.9675C9.01049 12.9885 8.98416 12.9999 8.95599 12.9997C6.56594 12.9754 3.8025 10.9876 4.20005 8.99984Z" fill="#D50B00" stroke="black"/>
<path d="M21.4445 8.68295C21.1349 7.1352 19.3032 7.45895 18.3391 7.84383C18.2869 7.86466 18.2277 7.84048 18.2008 7.79116C17.826 7.10365 16.1915 5.9359 15.0444 7.08299C13.8532 8.27422 15.2898 11.1735 16.6152 12.6506C16.634 12.6716 16.6604 12.683 16.6885 12.6828C19.0786 12.6585 21.842 10.6707 21.4445 8.68295Z" fill="#D50B00" stroke="black"/>
<path d="M19.3517 19.2353C19.4219 20.1686 18.8183 21.102 17.7538 21.102C16.7057 21.102 16.1022 20.1686 16.1612 19.2353C16.2177 18.3396 17.0884 16.3708 17.6807 15.5934C17.7181 15.5443 17.7898 15.5441 17.8275 15.5929C18.427 16.37 19.2843 18.3394 19.3517 19.2353Z" fill="#95F6FC" stroke="black"/>
<defs>
<filter id="filter0_f_48_972" x="1.74463" y="12.2471" width="5.15674" height="3.68457" filterUnits="userSpaceOnUse" color-interpolation-filters="sRGB">
<feFlood flood-opacity="0" result="BackgroundImageFix"/>
<feBlend mode="normal" in="SourceGraphic" in2="BackgroundImageFix" result="shape"/>
<feGaussianBlur stdDeviation="0.5" result="effect1_foregroundBlur_48_972"/>
</filter>
<filter id="filter1_f_48_972" x="18.5444" y="12.2466" width="5.15674" height="3.68457" filterUnits="userSpaceOnUse" color-interpolation-filters="sRGB">
<feFlood flood-opacity="0" result="BackgroundImageFix"/>
<feBlend mode="normal" in="SourceGraphic" in2="BackgroundImageFix" result="shape"/>
<feGaussianBlur stdDeviation="0.5" result="effect1_foregroundBlur_48_972"/>
</filter>
</defs>
</svg>
