<svg width="26" height="26" viewBox="0 0 26 26" fill="none" xmlns="http://www.w3.org/2000/svg">
<path fill-rule="evenodd" clip-rule="evenodd" d="M13 25C19.6274 25 25 19.6274 25 13C25 6.37258 19.6274 1 13 1C6.37258 1 1 6.37258 1 13C1 15.5367 1.78712 17.8896 3.13044 19.8277C3.2969 20.0679 3.36342 20.3653 3.30002 20.6505L2.98324 22.0761C2.81462 22.8348 3.53825 23.4875 4.27565 23.2417L5.43367 22.8557C5.74094 22.7532 6.07723 22.8083 6.34663 22.9882C8.25078 24.2591 10.5389 25 13 25Z" fill="#FFCF00"/>
<path d="M5.43367 22.8557L5.27556 22.3813L5.43367 22.8557ZM6.34663 22.9882L6.06905 23.404L6.34663 22.9882ZM2.98324 22.0761L2.49514 21.9676L2.98324 22.0761ZM4.27565 23.2417L4.11754 22.7673L4.27565 23.2417ZM3.13044 19.8277L2.7195 20.1126L3.13044 19.8277ZM24.5 13C24.5 19.3513 19.3513 24.5 13 24.5V25.5C19.9036 25.5 25.5 19.9036 25.5 13H24.5ZM13 1.5C19.3513 1.5 24.5 6.64873 24.5 13H25.5C25.5 6.09644 19.9036 0.5 13 0.5V1.5ZM1.5 13C1.5 6.64873 6.64873 1.5 13 1.5V0.5C6.09644 0.5 0.5 6.09644 0.5 13H1.5ZM3.54138 19.5429C2.25418 17.6857 1.5 15.4317 1.5 13H0.5C0.5 15.6417 1.32006 18.0935 2.7195 20.1126L3.54138 19.5429ZM3.47133 22.1845L3.78812 20.759L2.81193 20.5421L2.49514 21.9676L3.47133 22.1845ZM5.27556 22.3813L4.11754 22.7673L4.43377 23.716L5.59178 23.33L5.27556 22.3813ZM13 24.5C10.6407 24.5 8.44874 23.7901 6.6242 22.5723L6.06905 23.404C8.05283 24.7281 10.437 25.5 13 25.5V24.5ZM5.59178 23.33C5.74175 23.28 5.91826 23.3034 6.06905 23.404L6.6242 22.5723C6.2362 22.3133 5.74013 22.2265 5.27556 22.3813L5.59178 23.33ZM2.49514 21.9676C2.24222 23.1058 3.32766 24.0847 4.43377 23.716L4.11754 22.7673C3.74884 22.8902 3.38702 22.5639 3.47133 22.1845L2.49514 21.9676ZM2.7195 20.1126C2.81243 20.2466 2.8429 20.4027 2.81193 20.5421L3.78812 20.759C3.88394 20.3278 3.78137 19.8892 3.54138 19.5429L2.7195 20.1126Z" fill="black"/>
<g filter="url(#filter0_f_48_986)">
<ellipse cx="4.32234" cy="14.0893" rx="1.6" ry="0.8" transform="rotate(-10.9386 4.32234 14.0893)" fill="#FF8B72"/>
</g>
<g filter="url(#filter1_f_48_986)">
<ellipse rx="1.6" ry="0.8" transform="matrix(0.981831 0.189757 0.189757 -0.981831 21.1226 14.0889)" fill="#FF8B72"/>
</g>
<path fill-rule="evenodd" clip-rule="evenodd" d="M1.52072 11.1441L1.12489 7.71476C1.05635 7.12099 1.52058 6.6001 2.11829 6.6001H10.8001C11.3523 6.6001 11.8001 7.04781 11.8001 7.6001V7.8761C12.0313 7.77397 12.2804 7.69252 12.5443 7.64289C13.1098 7.53656 13.7061 7.58382 14.2935 7.83925V7.6001C14.2935 7.04781 14.7412 6.6001 15.2935 6.6001H23.9752C24.573 6.6001 25.0372 7.12099 24.9686 7.71476L24.5728 11.1441C24.3981 12.6578 23.1164 13.8001 21.5926 13.8001H18.1575C17.5533 13.8001 16.9815 13.527 16.6018 13.057L14.7378 10.75C14.4772 10.4275 14.3239 10.0328 14.2976 9.62102C13.7316 9.09716 13.2234 9.04148 12.8216 9.11706C12.4323 9.19026 12.0684 9.40362 11.7949 9.63603C11.7658 10.0424 11.6132 10.4314 11.3557 10.75L9.49171 13.057C9.112 13.527 8.54021 13.8001 7.93604 13.8001H4.50093C2.97716 13.8001 1.69544 12.6578 1.52072 11.1441Z" fill="black"/>
<path fill-rule="evenodd" clip-rule="evenodd" d="M20.1998 7.40039H18.9998L17.7998 10.4549H18.8853L18.1997 12.2001H19.3997L20.5997 9.14551H19.5142L20.1998 7.40039Z" fill="white"/>
<path fill-rule="evenodd" clip-rule="evenodd" d="M7.40049 7.40039H6.20049L5.00049 10.4549H6.08597L5.40039 12.2001H6.60039L7.80039 9.14551H6.71491L7.40049 7.40039Z" fill="white"/>
<path d="M8.19971 16.2002C9.53304 18.0113 12.9997 20.5468 16.1997 16.2002" stroke="black" stroke-width="1.5" stroke-linecap="round"/>
<defs>
<filter id="filter0_f_48_986" x="1.74414" y="12.2471" width="5.15674" height="3.68457" filterUnits="userSpaceOnUse" color-interpolation-filters="sRGB">
<feFlood flood-opacity="0" result="BackgroundImageFix"/>
<feBlend mode="normal" in="SourceGraphic" in2="BackgroundImageFix" result="shape"/>
<feGaussianBlur stdDeviation="0.5" result="effect1_foregroundBlur_48_986"/>
</filter>
<filter id="filter1_f_48_986" x="18.5444" y="12.2466" width="5.15674" height="3.68457" filterUnits="userSpaceOnUse" color-interpolation-filters="sRGB">
<feFlood flood-opacity="0" result="BackgroundImageFix"/>
<feBlend mode="normal" in="SourceGraphic" in2="BackgroundImageFix" result="shape"/>
<feGaussianBlur stdDeviation="0.5" result="effect1_foregroundBlur_48_986"/>
</filter>
</defs>
</svg>
