<svg width="90" height="90" viewBox="0 0 90 90" fill="none" xmlns="http://www.w3.org/2000/svg">
<circle cx="45" cy="45" r="45" fill="#EBEBE6"/>
<path d="M45.0001 44.507C51.5709 44.507 56.8975 39.2075 56.8975 32.6702C56.8975 26.133 51.5709 20.8335 45.0001 20.8335C38.4293 20.8335 33.1026 26.133 33.1026 32.6702C33.1026 39.2075 38.4293 44.507 45.0001 44.507Z" fill="#AFAFA5"/>
<path d="M51.1967 49.4392H38.8035C31.6155 49.4392 25.6667 55.3575 25.6667 62.5089C25.6667 64.2351 26.4103 65.7147 27.8975 66.4545C30.1283 67.6875 35.0856 69.1671 45.0001 69.1671C54.9146 69.1671 59.8719 67.6875 62.1026 66.4545C63.342 65.7147 64.3334 64.2351 64.3334 62.5089C64.3334 55.111 58.3847 49.4392 51.1967 49.4392Z" fill="#AFAFA5"/>
</svg>
