<svg width="16" height="16" viewBox="0 0 16 16" fill="none" xmlns="http://www.w3.org/2000/svg">
<path d="M14.2737 3.93166C14.2402 3.49074 14.049 3.07664 13.735 2.76522C13.4211 2.4538 13.0055 2.2659 12.5643 2.23594C12.1199 2.20175 11.6139 2.16756 11.0805 2.14021V3.5556C11.0805 3.87295 10.9545 4.1773 10.7301 4.40171C10.5057 4.62611 10.2013 4.75218 9.88396 4.75218C9.56661 4.75218 9.26226 4.62611 9.03785 4.40171C8.81345 4.1773 8.68738 3.87295 8.68738 3.5556V2.01713H6.97798V3.5556C6.97798 3.87295 6.85191 4.1773 6.62751 4.40171C6.40311 4.62611 6.09875 4.75218 5.7814 4.75218C5.46405 4.75218 5.15969 4.62611 4.93529 4.40171C4.71089 4.1773 4.58482 3.87295 4.58482 3.5556V2.14021C4.05149 2.14021 3.5455 2.20175 3.09422 2.23594C2.65589 2.26529 2.24299 2.45231 1.93183 2.76243C1.61775 3.07505 1.42611 3.48987 1.39166 3.93166C1.28909 5.19662 1.16602 6.99491 1.16602 8.34192C1.16602 9.68893 1.28909 11.4872 1.39166 12.759C1.42652 13.1976 1.61747 13.6092 1.92985 13.9191C2.24223 14.229 2.65534 14.4166 3.09422 14.4479C4.20875 14.53 6.29422 14.6667 7.83268 14.6667C9.37114 14.6667 11.4566 14.53 12.5643 14.4479C13.0044 14.4181 13.4191 14.2312 13.7329 13.9212C14.0467 13.6112 14.2386 13.1987 14.2737 12.759C14.3763 11.4872 14.4993 9.68893 14.4993 8.34192C14.4993 6.99491 14.3763 5.19662 14.2737 3.93166ZM7.83268 10.5641H5.09764C4.96163 10.5641 4.83119 10.5101 4.73502 10.4139C4.63885 10.3178 4.58482 10.1873 4.58482 10.0513C4.58482 9.91531 4.63885 9.78488 4.73502 9.68871C4.83119 9.59253 4.96163 9.5385 5.09764 9.5385H7.83268C7.96869 9.5385 8.09913 9.59253 8.1953 9.68871C8.29147 9.78488 8.3455 9.91531 8.3455 10.0513C8.3455 10.1873 8.29147 10.3178 8.1953 10.4139C8.09913 10.5101 7.96869 10.5641 7.83268 10.5641ZM10.5677 7.8291H5.09764C4.96163 7.8291 4.83119 7.77507 4.73502 7.6789C4.63885 7.58273 4.58482 7.45229 4.58482 7.31628C4.58482 7.18027 4.63885 7.04983 4.73502 6.95366C4.83119 6.85749 4.96163 6.80346 5.09764 6.80346H7.83268H10.5677C10.7037 6.80346 10.8342 6.85749 10.9303 6.95366C11.0265 7.04983 11.0805 7.18027 11.0805 7.31628C11.0805 7.45229 11.0265 7.58273 10.9303 7.6789C10.8342 7.77507 10.7037 7.8291 10.5677 7.8291Z" fill="#AFAFA5"/>
<path d="M6.29422 1.84619V3.5556C6.29422 3.6916 6.24019 3.82204 6.14402 3.91822C6.04785 4.01439 5.91741 4.06842 5.7814 4.06842C5.64539 4.06842 5.51495 4.01439 5.41878 3.91822C5.32261 3.82204 5.26858 3.6916 5.26858 3.5556V1.84619C5.26858 1.71019 5.32261 1.57975 5.41878 1.48358C5.51495 1.3874 5.64539 1.33337 5.7814 1.33337C5.91741 1.33337 6.04785 1.3874 6.14402 1.48358C6.24019 1.57975 6.29422 1.71019 6.29422 1.84619Z" fill="#AFAFA5"/>
<path d="M10.3968 1.84619V3.5556C10.3968 3.6916 10.3428 3.82204 10.2466 3.91822C10.1504 4.01439 10.02 4.06842 9.88396 4.06842C9.74796 4.06842 9.61752 4.01439 9.52135 3.91822C9.42517 3.82204 9.37114 3.6916 9.37114 3.5556V1.84619C9.37114 1.71019 9.42517 1.57975 9.52135 1.48358C9.61752 1.3874 9.74796 1.33337 9.88396 1.33337C10.02 1.33337 10.1504 1.3874 10.2466 1.48358C10.3428 1.57975 10.3968 1.71019 10.3968 1.84619Z" fill="#AFAFA5"/>
</svg>
