<svg width="18" height="18" viewBox="0 0 18 18" fill="none" xmlns="http://www.w3.org/2000/svg">
<path d="M16.2704 6.72429C16.1939 5.72143 15.352 4.95 14.3571 4.87286L13.6684 4.79571C13.3622 4.79571 13.0561 4.64143 12.9031 4.33286L12.2143 3.25286C11.8316 2.63571 11.1429 2.25 10.4541 2.25H7.54592C6.78061 2.25 6.16837 2.63571 5.78572 3.25286L5.09694 4.33286C4.94388 4.56429 4.63776 4.71857 4.33163 4.79571L3.64286 4.87286C2.64796 4.95 1.88265 5.72143 1.72959 6.72429C1.65306 7.72714 1.5 9.11572 1.5 10.1957C1.5 11.2757 1.65306 12.6643 1.72959 13.6671C1.80612 14.67 2.64796 15.4414 3.64286 15.5186C5.17347 15.5957 7.31633 15.75 9 15.75C10.6837 15.75 12.8265 15.5957 14.3571 15.5186C15.352 15.4414 16.1939 14.67 16.2704 13.6671C16.3469 12.6643 16.5 11.2757 16.5 10.1957C16.5 9.11572 16.3469 7.65 16.2704 6.72429ZM9 12.7414C7.39286 12.7414 6.09184 11.43 6.09184 9.81C6.09184 8.19 7.39286 6.87857 9 6.87857C10.6071 6.87857 11.9082 8.19 11.9082 9.81C11.9082 11.43 10.6071 12.7414 9 12.7414Z" fill="#AFAFA5"/>
</svg>
