<svg width="16" height="16" viewBox="0 0 16 16" fill="none" xmlns="http://www.w3.org/2000/svg">
<path d="M8.00016 1.33325C4.32669 1.33325 1.3335 4.32645 1.3335 7.99992C1.3335 11.6734 4.32669 14.6666 8.00016 14.6666C11.6736 14.6666 14.6668 11.6734 14.6668 7.99992C14.6668 4.32645 11.6736 1.33325 8.00016 1.33325ZM8.68044 7.99992L6.36751 10.3809C6.23146 10.4489 6.16343 10.5169 6.02737 10.5169C5.89132 10.5169 5.75527 10.4489 5.68724 10.3809C5.48316 10.1768 5.48316 9.83665 5.68724 9.63257L7.592 7.72781V4.59856C7.592 4.32645 7.79608 4.05434 8.13622 4.05434C8.47635 4.05434 8.68044 4.25842 8.68044 4.59856V7.99992Z" fill="#FF9292"/>
</svg>
