<svg width="14" height="18" viewBox="0 0 14 18" fill="none" xmlns="http://www.w3.org/2000/svg">
<path d="M9.15801 1.15817C8.84134 0.841504 8.41634 0.666504 7.97467 0.666504H1.99967C1.08301 0.666504 0.333008 1.4165 0.333008 2.33317V15.6665C0.333008 16.5832 1.07467 17.3332 1.99134 17.3332H11.9997C12.9163 17.3332 13.6663 16.5832 13.6663 15.6665V6.35817C13.6663 5.9165 13.4913 5.4915 13.1747 5.18317L9.15801 1.15817ZM9.49967 13.9998H4.49967C4.04134 13.9998 3.66634 13.6248 3.66634 13.1665C3.66634 12.7082 4.04134 12.3332 4.49967 12.3332H9.49967C9.95801 12.3332 10.333 12.7082 10.333 13.1665C10.333 13.6248 9.95801 13.9998 9.49967 13.9998ZM9.49967 10.6665H4.49967C4.04134 10.6665 3.66634 10.2915 3.66634 9.83317C3.66634 9.37484 4.04134 8.99984 4.49967 8.99984H9.49967C9.95801 8.99984 10.333 9.37484 10.333 9.83317C10.333 10.2915 9.95801 10.6665 9.49967 10.6665ZM7.83301 5.6665V1.9165L12.4163 6.49984H8.66634C8.20801 6.49984 7.83301 6.12484 7.83301 5.6665Z" fill="#AFAFA5"/>
</svg>
