<svg width="24" height="24" viewBox="0 0 24 24" fill="none" xmlns="http://www.w3.org/2000/svg">
<path d="M24 12.0185C24 5.38086 18.6274 0 12 0C5.37258 0 0 5.38086 0 12.0185C0 18.0173 4.38823 22.9893 10.125 23.8909V15.4926H7.07812V12.0185H10.125V9.37066C10.125 6.35853 11.9165 4.69472 14.6576 4.69472C15.9705 4.69472 17.3438 4.92946 17.3438 4.92946V7.88713H15.8306C14.3399 7.88713 13.875 8.81356 13.875 9.76402V12.0185H17.2031L16.6711 15.4926H13.875V23.8909C19.6118 22.9893 24 18.0173 24 12.0185Z" fill="white"/>
<path d="M16.6734 15.4703L17.2049 12.0021H13.8804V9.75152C13.8804 8.80269 14.3447 7.87786 15.8338 7.87786H17.3454V4.92525C17.3454 4.92525 15.9736 4.69092 14.6621 4.69092C11.924 4.69092 10.1344 6.35187 10.1344 9.35884V12.0021H7.09082V15.4703H10.1344V23.8542C11.3755 24.0486 12.6393 24.0486 13.8804 23.8542V15.4703H16.6734Z" fill="#4E67A9"/>
</svg>
