<svg width="20" height="20" viewBox="0 0 20 20" fill="none" xmlns="http://www.w3.org/2000/svg">
<path d="M15.8395 4.18403C14.3796 2.62153 12.2328 1.66667 10 1.66667C7.76725 1.66667 5.62037 2.53473 4.16049 4.18403C2.95824 5.57292 2.35711 7.30903 2.52887 9.04514C2.52887 9.39237 2.61474 9.73959 2.70062 10C3.47349 13.6458 7.42375 16.8576 9.14125 18.0729C9.39887 18.2465 9.6565 18.3333 10 18.3333C10.3435 18.3333 10.6011 18.2465 10.8588 18.0729C12.4904 16.8576 16.5265 13.6458 17.2994 10C17.3853 9.73959 17.3853 9.39237 17.4711 9.04514C17.6429 7.30903 17.0418 5.57292 15.8395 4.18403ZM10 11.6493C8.71187 11.6493 7.5955 10.6076 7.5955 9.21875C7.5955 7.82987 8.626 6.7882 10 6.7882C11.374 6.7882 12.4045 7.82987 12.4045 9.21875C12.4045 10.6076 11.2881 11.6493 10 11.6493Z" fill="#AFAFA5"/>
</svg>
