<svg width="70" height="70" viewBox="0 0 70 70" fill="none" xmlns="http://www.w3.org/2000/svg">
<path fill-rule="evenodd" clip-rule="evenodd" d="M69.1954 31.5897C68.7931 26.9231 64.7701 23.3333 59.5402 22.9744C58.7356 22.9744 57.8305 22.8846 56.9253 22.7949C56.0201 22.7051 55.1149 22.6154 54.3103 22.6154V13.641C54.3103 6.10256 47.4713 0 39.023 0H30.977C22.5287 0 15.6897 6.10256 15.6897 13.641V22.6154C14.6279 22.6154 13.6782 22.7154 12.7814 22.8099H12.7814C11.9793 22.8943 11.2195 22.9744 10.4598 22.9744C5.22989 23.3333 1.2069 26.9231 0.804598 31.5897C0.402299 35.5385 0 41.641 0 45.9487C0 50.2564 0.402299 56 0.804598 60.3077C1.2069 64.9744 5.22989 68.5641 10.4598 68.9231C17.7011 69.641 27.3563 70 35 70C40.5995 70 47.2786 69.6147 53.2973 69.2675H53.2974L53.2984 69.2674C55.4952 69.1407 57.604 69.0191 59.5402 68.9231C64.7701 68.5641 68.7931 64.9744 69.1954 60.3077C69.5977 56.359 70 50.6154 70 45.9487C70 41.2821 69.5977 35.8974 69.1954 31.5897ZM47.8736 22.2564C43.4483 21.8974 39.023 21.5385 35 21.5385C30.977 21.5385 26.5517 21.5385 22.1264 21.8974V13.641C22.1264 9.33333 26.1494 5.74359 30.977 5.74359H39.023C43.8506 5.74359 47.8736 9.33333 47.8736 13.641V22.2564ZM33.151 51.1736C33.151 51.1736 33.151 51.1737 33.151 51.1737H35.7204C35.7204 50.449 35.7314 49.8506 35.7534 49.3784C35.7863 48.9063 35.9455 48.4067 36.231 47.8796C36.4616 47.4514 36.791 47.0561 37.2192 46.6937C37.6585 46.3204 38.1141 45.9635 38.5863 45.6231C39.0585 45.2717 39.4812 44.8929 39.8545 44.4866C40.4694 43.8608 40.9471 43.147 41.2875 42.3455C41.6279 41.5439 41.7981 40.6874 41.7981 39.7761C41.7981 38.9635 41.6718 38.2004 41.4192 37.4866C41.1777 36.7619 40.7934 36.1196 40.2663 35.5596C39.7412 34.9557 39.1184 34.4914 38.398 34.1665C39.1183 34.4914 39.7409 34.9557 40.2659 35.5595C40.793 36.1195 41.1773 36.7618 41.4189 37.4865C41.6714 38.2002 41.7977 38.9634 41.7977 39.7759C41.7977 40.6873 41.6275 41.5438 41.2871 42.3453C40.9467 43.1469 40.4691 43.8606 39.8542 44.4865C39.4808 44.8928 39.0581 45.2716 38.5859 45.623C38.1138 45.9634 37.6581 46.3202 37.2189 46.6936C36.7906 47.0559 36.4612 47.4512 36.2306 47.8795C35.9452 48.4065 35.7859 48.9061 35.753 49.3783C35.731 49.8504 35.7201 50.4489 35.7201 51.1736H33.151ZM36.7745 36.0702C36.7744 36.0701 36.7743 36.0701 36.7742 36.07C36.1373 35.8724 35.473 35.7736 34.7812 35.7736C34.1004 35.7736 33.4636 35.8724 32.8706 36.07C32.2887 36.2567 31.8055 36.5477 31.4212 36.943C31.0479 37.2944 30.7734 37.7171 30.5977 38.2112C30.433 38.7053 30.3506 39.2269 30.3506 39.7759H27.8475C27.8475 39.776 27.8475 39.776 27.8475 39.7761H30.351C30.351 39.227 30.4334 38.7055 30.5981 38.2114C30.7738 37.7172 31.0483 37.2945 31.4216 36.9431C31.8059 36.5478 32.289 36.2568 32.871 36.0702C33.464 35.8725 34.1008 35.7737 34.7816 35.7737C35.4734 35.7737 36.1377 35.8725 36.7745 36.0702ZM33.1675 57.6465H35.7201V54.4184H35.7204V57.6466H33.1675V57.6465ZM32.1216 51.1737V52.2031H36.7498V51.1737C36.7498 50.4645 36.7605 49.8878 36.7811 49.4394C36.8031 49.1494 36.9055 48.7957 37.1362 48.3699L37.1374 48.3676C37.2982 48.0689 37.5395 47.7712 37.8842 47.4795L37.8859 47.4781C38.3041 47.1226 38.7382 46.7828 39.1884 46.4583L39.2009 46.4489C39.7166 46.0652 40.1841 45.6477 40.6009 45.1958C41.2998 44.4814 41.846 43.6638 42.235 42.7478C42.6319 41.8131 42.8275 40.8191 42.8275 39.7761C42.8275 38.8584 42.6851 37.9813 42.3928 37.1521C42.1057 36.2949 41.6492 35.5311 41.0298 34.8689C40.2512 33.9788 39.2871 33.3432 38.1559 32.9695C37.0785 32.6028 35.9463 32.4219 34.7651 32.4219C33.7789 32.4219 32.8026 32.5761 31.8396 32.8805C30.8467 33.1866 29.9648 33.6866 29.2056 34.3787C28.434 35.0487 27.8508 35.8788 27.4543 36.8508L27.4517 36.8573C27.081 37.7839 26.8692 38.7408 26.8194 39.724L26.7646 40.8055H31.3804V39.7761C31.3804 39.3355 31.4457 38.9276 31.5714 38.5468C31.6936 38.2073 31.8779 37.9273 32.1271 37.6927L32.1438 37.6771L32.1597 37.6607C32.4141 37.399 32.7463 37.1913 33.1854 37.0505L33.1965 37.0468C33.6756 36.8871 34.2016 36.8031 34.7816 36.8031C35.3738 36.8031 35.935 36.8875 36.4694 37.0533C36.9048 37.1884 37.2743 37.4365 37.5912 37.8247L37.6063 37.8431L37.6222 37.8609C37.7994 38.0586 37.9368 38.3012 38.0283 38.6061L38.0355 38.6284C38.1387 38.9457 38.1992 39.3349 38.1992 39.809C38.1992 40.2807 38.1393 40.7186 38.0239 41.1267C37.9322 41.4513 37.7377 41.8154 37.3925 42.217C36.9704 42.6667 36.5293 43.0531 36.0698 43.3791C35.5157 43.7604 34.9845 44.1704 34.4761 44.6091C33.8825 45.1096 33.3981 45.7325 33.0154 46.4589C32.6141 47.2121 32.3517 47.9873 32.2458 48.7812L32.2441 48.796C32.1612 49.4942 32.1216 50.2884 32.1216 51.1737ZM32.1381 53.389V58.6761H36.7498V53.389H32.1381Z" fill="#FF9292"/>
</svg>
