<svg width="84" height="66" viewBox="0 0 84 66" fill="none" xmlns="http://www.w3.org/2000/svg">
<path d="M74.9971 33.079V11.3151C74.9945 8.3149 73.8016 5.43835 71.6802 3.31692C69.5587 1.19549 66.6822 0.00254853 63.682 0H12.0699C9.06979 0.00254853 6.19324 1.19549 4.0718 3.31692C1.95037 5.43835 0.757431 8.3149 0.754883 11.3151V40.9295C0.757431 43.9296 1.95037 46.8062 4.0718 48.9276C6.19324 51.049 9.06979 52.242 12.0699 52.2445H47.9949C48.6681 55.0925 50.0307 57.7315 51.9628 59.9295C53.8949 62.1275 56.3373 63.8172 59.0755 64.8501C61.8136 65.8829 64.7636 66.2273 67.666 65.853C70.5684 65.4786 73.3344 64.397 75.7209 62.7031C78.1073 61.0093 80.0411 58.7551 81.3522 56.1388C82.6634 53.5225 83.3117 50.6241 83.2402 47.6985C83.1687 44.7729 82.3797 41.9097 80.9423 39.3605C79.505 36.8113 77.4634 34.6543 74.9971 33.079ZM45.0115 27.0022C43.011 28.6698 40.4897 29.5842 37.8853 29.5867C35.281 29.5892 32.7579 28.6797 30.7542 27.0159L7.12046 47.9275C6.36684 47.3892 5.70327 46.7349 5.15442 45.9889L28.6507 25.2286L5.59437 5.70565C6.21631 5.001 6.94462 4.39795 7.7529 3.91834L32.3903 24.8024C33.9189 26.11 35.8644 26.8286 37.876 26.8286C39.8876 26.8286 41.833 26.11 43.3617 24.8024L67.9991 3.91834C68.8074 4.39795 69.5357 5.001 70.1576 5.70565L47.1425 25.2011L56.0928 32.8453C55.2828 33.3354 54.5149 33.8919 53.7968 34.5089L45.0115 27.0022ZM65.3731 63.2434C62.382 63.2434 59.458 62.3564 56.971 60.6946C54.484 59.0328 52.5455 56.6709 51.4009 53.9074C50.2562 51.144 49.9567 48.1032 50.5403 45.1695C51.1238 42.2359 52.5642 39.5411 54.6792 37.4261C56.7943 35.311 59.489 33.8707 62.4227 33.2871C65.3563 32.7036 68.3971 33.0031 71.1606 34.1477C73.924 35.2924 76.286 37.2308 77.9478 39.7178C79.6095 42.2049 80.4965 45.1288 80.4965 48.1199C80.494 52.1301 78.8998 55.9754 76.0641 58.811C73.2285 61.6466 69.3833 63.2408 65.3731 63.2434Z" fill="#FF9292"/>
<path d="M71.1892 46.9099C72.2846 46.5418 73.2122 45.794 73.8045 44.8017C74.3967 43.8094 74.6146 42.638 74.4187 41.4992C74.2228 40.3603 73.6261 39.329 72.7363 38.5916C71.8465 37.8543 70.7223 37.4594 69.5669 37.4784L59.063 37.6434C57.978 37.6563 56.9413 38.094 56.1754 38.8625C55.4094 39.6311 54.9752 40.6692 54.9659 41.7542L54.7872 52.2581C54.7691 53.4243 55.1725 54.5579 55.9231 55.4506C56.6738 56.3433 57.7214 56.9351 58.8734 57.1174C60.0254 57.2996 61.2045 57.0601 62.1941 56.4427C63.1836 55.8253 63.9172 54.8716 64.26 53.7567L67.7796 57.2626C68.6976 58.1536 69.9293 58.6477 71.2085 58.6381C72.4878 58.6286 73.712 58.1162 74.6166 57.2116C75.5212 56.307 76.0336 55.0828 76.0431 53.8035C76.0527 52.5243 75.5586 51.2926 74.6676 50.3746L71.1892 46.9099Z" fill="#FF9292"/>
</svg>
