<svg width="66" height="66" viewBox="0 0 66 66" fill="none" xmlns="http://www.w3.org/2000/svg">
<circle cx="33" cy="33" r="32.5" stroke="#FFE8E8"/>
<circle cx="33" cy="33" r="30" fill="#FFF8F8"/>
<path d="M29.9395 23.891L29.9724 23.9004L30.0062 23.9052C30.5157 23.978 30.8077 24.3109 30.8077 24.7436V24.7791L30.8127 24.8143C30.835 24.9703 30.861 25.1397 30.8882 25.317C30.9927 25.9979 31.1153 26.7966 31.1153 27.4102C31.1153 28.0238 30.9927 28.8225 30.8882 29.5035C30.8613 29.6784 30.8357 29.8455 30.8136 29.9998C30.7394 30.4307 30.3732 30.8482 29.9036 30.9152C29.7476 30.9375 29.5782 30.9635 29.4009 30.9907C28.72 31.0953 27.9213 31.2179 27.3077 31.2179C26.6941 31.2179 25.8954 31.0953 25.2144 30.9907C25.0395 30.9639 24.8724 30.9382 24.7181 30.9162C24.2872 30.842 23.8697 30.4758 23.8027 30.0062C23.7804 29.8502 23.7544 29.6808 23.7272 29.5035C23.6226 28.8225 23.5 28.0238 23.5 27.4102C23.5 26.6496 23.6943 25.5693 23.891 24.8809L23.9004 24.8481L23.9052 24.8143C23.9764 24.3163 24.3163 23.9764 24.8143 23.9052L24.8481 23.9004L24.8809 23.891C25.5693 23.6943 26.6496 23.5 27.4102 23.5C28.1709 23.5 29.2512 23.6943 29.9395 23.891ZM27.4102 34.8846C28.0238 34.8846 28.8225 35.0072 29.5034 35.1118C29.6808 35.139 29.8501 35.165 30.0061 35.1873C30.5041 35.2584 30.8441 35.5984 30.9152 36.0963C30.9375 36.2524 30.9635 36.4217 30.9907 36.599C31.0952 37.28 31.2179 38.0787 31.2179 38.6923C31.2179 39.3059 31.0952 40.1046 30.9907 40.7855C30.9638 40.9605 30.9382 41.1276 30.9161 41.2818C30.842 41.7128 30.4757 42.1302 30.0061 42.1973C29.8501 42.2196 29.6808 42.2456 29.5034 42.2728C28.8225 42.3773 28.0238 42.5 27.4102 42.5C26.7966 42.5 25.9979 42.3773 25.3169 42.2728C25.142 42.2459 24.9749 42.2203 24.8206 42.1982C24.3897 42.1241 23.9723 41.7578 23.9052 41.2882C23.8829 41.1322 23.8569 40.9629 23.8297 40.7855C23.7251 40.1046 23.6025 39.3059 23.6025 38.6923C23.6025 38.0787 23.7251 37.28 23.8297 36.599C23.8565 36.4241 23.8822 36.257 23.9043 36.1027C23.9784 35.6718 24.3447 35.2544 24.8142 35.1873C24.9703 35.165 25.1396 35.139 25.3169 35.1118C25.9979 35.0072 26.7966 34.8846 27.4102 34.8846ZM38.6922 31.2181C38.0786 31.2181 37.2799 31.0955 36.5989 30.9909C36.4216 30.9637 36.2522 30.9377 36.0962 30.9154C35.5983 30.8443 35.2583 30.5043 35.1872 30.0064C35.1649 29.8504 35.1389 29.681 35.1116 29.5037C35.0071 28.8227 34.8845 28.024 34.8845 27.4104C34.8845 26.7968 35.0071 25.9981 35.1116 25.3172C35.1385 25.1422 35.1642 24.9751 35.1862 24.8208C35.2604 24.3899 35.6266 23.9725 36.0962 23.9054C36.2522 23.8831 36.4216 23.8571 36.5989 23.8299C37.2799 23.7254 38.0786 23.6028 38.6922 23.6028C39.3058 23.6028 40.1045 23.7254 40.7854 23.8299C40.9603 23.8568 41.1275 23.8824 41.2817 23.9045C41.7127 23.9787 42.1301 24.3449 42.1972 24.8145C42.2195 24.9705 42.2455 25.1398 42.2727 25.3172C42.3772 25.9981 42.4998 26.7968 42.4998 27.4104C42.4998 28.024 42.3772 28.8227 42.2727 29.5037C42.2458 29.6786 42.2202 29.8457 42.1981 30C42.1239 30.4309 41.7577 30.8483 41.2881 30.9154C41.1321 30.9377 40.9627 30.9637 40.7854 30.9909C40.1045 31.0955 39.3058 31.2181 38.6922 31.2181ZM38.6922 34.8846C39.3058 34.8846 40.1045 35.0072 40.7854 35.1118C40.9628 35.139 41.1321 35.165 41.2881 35.1873C41.7861 35.2584 42.126 35.5984 42.1972 36.0963C42.2195 36.2524 42.2455 36.4217 42.2727 36.599C42.3772 37.28 42.4998 38.0787 42.4998 38.6923C42.4998 39.3059 42.3772 40.1046 42.2727 40.7855C42.2458 40.9605 42.2202 41.1276 42.1981 41.2818C42.1239 41.7128 41.7577 42.1302 41.2881 42.1973C41.1321 42.2196 40.9628 42.2456 40.7854 42.2728C40.1045 42.3773 39.3058 42.5 38.6922 42.5C38.0786 42.5 37.2799 42.3773 36.5989 42.2728C36.424 42.2459 36.2569 42.2203 36.1026 42.1982C35.6717 42.1241 35.2542 41.7578 35.1872 41.2882C35.1649 41.1322 35.1389 40.9629 35.1117 40.7855C35.0071 40.1046 34.8845 39.3059 34.8845 38.6923C34.8845 38.0787 35.0071 37.28 35.1116 36.599C35.1385 36.4241 35.1642 36.2569 35.1862 36.1027C35.2604 35.6718 35.6266 35.2544 36.0962 35.1873C36.2522 35.165 36.4216 35.139 36.5989 35.1118C37.2799 35.0072 38.0786 34.8846 38.6922 34.8846Z" stroke="#AFAFA5"/>
</svg>
