<svg width="36" height="36" viewBox="0 0 36 36" fill="none" xmlns="http://www.w3.org/2000/svg">
<circle cx="18" cy="18" r="18" fill="#FFE8E8"/>
<path d="M15.0769 8.41025C14.3589 8.20513 13.2307 8 12.4102 8C11.5897 8 10.4615 8.20513 9.74358 8.41025C9.02564 8.51282 8.51282 9.02564 8.41025 9.74358C8.20513 10.4615 8 11.5897 8 12.4102C8 13.2307 8.20513 14.3589 8.30769 15.0769C8.41025 15.7948 9.02564 16.3076 9.64102 16.4102C10.359 16.5128 11.4872 16.7179 12.3077 16.7179C13.1282 16.7179 14.2564 16.5128 14.9743 16.4102C15.6923 16.3076 16.2051 15.6923 16.3077 15.0769C16.4102 14.3589 16.6153 13.2307 16.6153 12.4102C16.6153 11.5897 16.4102 10.4615 16.3077 9.74358C16.3077 9.02564 15.7948 8.51282 15.0769 8.41025Z" fill="white"/>
<path d="M15.0768 19.6923C14.3589 19.5897 13.2307 19.3846 12.4102 19.3846C11.5897 19.3846 10.4615 19.5897 9.74353 19.6923C9.02559 19.7949 8.51277 20.4102 8.4102 21.0256C8.30764 21.7436 8.10251 22.8718 8.10251 23.6923C8.10251 24.5128 8.30764 25.641 8.4102 26.3589C8.51277 27.0769 9.12815 27.5897 9.74353 27.6923C10.4615 27.7948 11.5897 28 12.4102 28C13.2307 28 14.3589 27.7948 15.0768 27.6923C15.7948 27.5897 16.3076 26.9743 16.4102 26.3589C16.5127 25.641 16.7179 24.5128 16.7179 23.6923C16.7179 22.8718 16.5127 21.7436 16.4102 21.0256C16.3076 20.3077 15.7948 19.7949 15.0768 19.6923Z" fill="white"/>
<path d="M21.0255 16.4104C21.7435 16.513 22.8717 16.7181 23.6922 16.7181C24.5127 16.7181 25.6409 16.513 26.3588 16.4104C27.0768 16.3078 27.5896 15.6925 27.6921 15.0771C27.7947 14.3591 27.9998 13.2309 27.9998 12.4104C27.9998 11.5899 27.7947 10.4617 27.6921 9.74377C27.5896 9.02583 26.9742 8.51301 26.3588 8.41045C25.6409 8.30788 24.5127 8.10276 23.6922 8.10276C22.8717 8.10276 21.7435 8.30788 21.0255 8.41045C20.3076 8.51301 19.7947 9.12839 19.6922 9.74377C19.5896 10.4617 19.3845 11.5899 19.3845 12.4104C19.3845 13.2309 19.5896 14.3591 19.6922 15.0771C19.7947 15.795 20.3076 16.3078 21.0255 16.4104Z" fill="white"/>
<path d="M26.3588 19.6923C25.6409 19.5897 24.5127 19.3846 23.6922 19.3846C22.8717 19.3846 21.7435 19.5897 21.0255 19.6923C20.3076 19.7949 19.7947 20.4102 19.6922 21.0256C19.5896 21.7436 19.3845 22.8718 19.3845 23.6923C19.3845 24.5128 19.5896 25.641 19.6922 26.3589C19.7947 27.0769 20.4101 27.5897 21.0255 27.6923C21.7435 27.7948 22.8717 28 23.6922 28C24.5127 28 25.6409 27.7948 26.3588 27.6923C27.0768 27.5897 27.5896 26.9743 27.6921 26.3589C27.7947 25.641 27.9998 24.5128 27.9998 23.6923C27.9998 22.8718 27.7947 21.7436 27.6921 21.0256C27.5896 20.3077 27.0768 19.7949 26.3588 19.6923Z" fill="white"/>
</svg>
