<svg width="26" height="27" viewBox="0 0 26 27" fill="none" xmlns="http://www.w3.org/2000/svg">
<path d="M20.8963 1.32096C15.6937 -0.318406 12.612 4.71871 12.875 7.46943C15.1085 5.80383 18.2845 2.17556 19.1382 3.59269C19.9919 5.00983 16.1473 6.60415 13.4729 7.64248C19.3532 9.27259 25.59 2.79994 20.8963 1.32096Z" fill="#FFE135" stroke="black" stroke-linecap="round"/>
<path d="M4.57439 1.32096C9.77702 -0.318406 12.8587 4.71871 12.5957 7.46943C10.3622 5.80383 7.18618 2.17556 6.33248 3.59269C5.47879 5.00983 9.32338 6.60415 11.9979 7.64248C6.11748 9.27259 -0.119272 2.79994 4.57439 1.32096Z" fill="#FFE135" stroke="black" stroke-linecap="round"/>
<path d="M3.4248 12.2363H2.9248V12.7363V22.686C2.9248 24.619 4.4918 26.186 6.4248 26.186H19.3869C21.3199 26.186 22.8869 24.619 22.8869 22.686V12.7363V12.2363H22.3869H3.4248Z" fill="#FF5D20" stroke="black"/>
<rect x="10.7275" y="13.9976" width="4.33479" height="11.6883" fill="#FFE135"/>
<rect x="0.5" y="7.73535" width="24.8119" height="6.76242" rx="3.38121" fill="#FF5D20" stroke="black"/>
<path d="M17.4936 22.8146C17.5523 22.7385 17.6666 22.7365 17.7279 22.8107L17.9031 23.0225C17.9203 23.0432 17.9426 23.0589 17.9679 23.068L18.1687 23.1403C18.2621 23.174 18.2976 23.2875 18.2401 23.3684L18.0973 23.569C18.0793 23.5944 18.0696 23.6248 18.0696 23.656V23.8753C18.0696 23.9776 17.9694 24.0499 17.8723 24.0177L17.6555 23.9457C17.6248 23.9355 17.5917 23.9355 17.561 23.9457L17.3442 24.0177C17.2471 24.0499 17.1469 23.9776 17.1469 23.8753V23.656C17.1469 23.6248 17.1372 23.5944 17.1192 23.569L16.9783 23.371C16.9202 23.2893 16.957 23.1747 17.0519 23.1422L17.2662 23.0687C17.294 23.0592 17.3183 23.0417 17.3363 23.0185L17.4936 22.8146Z" fill="#FF9740"/>
<path d="M17.3171 19.6057C17.3966 19.5516 17.5058 19.5853 17.541 19.6749L17.6865 20.0447C17.6963 20.0697 17.7127 20.0916 17.7339 20.1081L17.9889 20.3069C18.0672 20.368 18.0657 20.4869 17.9858 20.5459L17.6915 20.7632C17.6664 20.7818 17.6477 20.8076 17.638 20.8372L17.5338 21.1555C17.502 21.2528 17.3843 21.2903 17.3021 21.2295L17.0233 21.0233C16.9974 21.0041 16.9659 20.9938 16.9335 20.9939L16.5868 20.9953C16.4845 20.9957 16.4118 20.8959 16.4437 20.7986L16.5479 20.4803C16.5576 20.4507 16.5578 20.4188 16.5485 20.3891L16.4407 20.0428C16.4109 19.9471 16.4816 19.8496 16.5818 19.8482L16.9233 19.8435C16.9527 19.8431 16.9813 19.8341 17.0056 19.8176L17.3171 19.6057Z" fill="#FF9740"/>
<path d="M17.7034 8.37058C17.7609 8.29347 17.8751 8.28965 17.9376 8.36276L18.196 8.66481C18.2134 8.68522 18.236 8.70057 18.2614 8.70926L18.5674 8.81382C18.6614 8.84593 18.6988 8.95884 18.6426 9.0407L18.4354 9.34225C18.4178 9.36794 18.4086 9.39849 18.4091 9.42965L18.4146 9.76453C18.4163 9.86682 18.3173 9.94074 18.2197 9.91011L17.8889 9.80633C17.8581 9.79665 17.8249 9.79719 17.7944 9.80788L17.4672 9.92248C17.3707 9.9563 17.2693 9.88567 17.2677 9.78338L17.2622 9.4485C17.2616 9.41734 17.2514 9.38711 17.233 9.36202L17.0179 9.07002C16.9584 8.98928 16.9934 8.87405 17.0877 8.83999L17.4089 8.72397C17.4365 8.71399 17.4606 8.69612 17.4782 8.67257L17.7034 8.37058Z" fill="#FF9740"/>
<path d="M19.4533 12.0081C19.5108 11.931 19.625 11.9271 19.6875 12.0002L19.8993 12.2479C19.9168 12.2683 19.9394 12.2837 19.9648 12.2923L20.21 12.3761C20.304 12.4082 20.3414 12.5212 20.2852 12.603L20.1176 12.847C20.0999 12.8726 20.0907 12.9032 20.0912 12.9344L20.0956 13.2017C20.0973 13.304 19.9983 13.3779 19.9007 13.3473L19.6359 13.2642C19.605 13.2545 19.5719 13.2551 19.5414 13.2658L19.2794 13.3575C19.1828 13.3913 19.0815 13.3207 19.0798 13.2184L19.0754 12.9511C19.0749 12.9199 19.0647 12.8897 19.0462 12.8646L18.8726 12.6288C18.8131 12.5481 18.8481 12.4329 18.9424 12.3988L19.2004 12.3056C19.2281 12.2956 19.2521 12.2778 19.2697 12.2542L19.4533 12.0081Z" fill="#FF9740"/>
<path d="M23.9813 9.63498C24.0735 9.6075 24.1673 9.67267 24.1738 9.76865L24.2053 10.2363C24.2071 10.2631 24.2161 10.2889 24.2313 10.3111L24.4504 10.6305C24.5066 10.7124 24.4691 10.8253 24.3751 10.8573L23.963 10.9979C23.9335 11.0079 23.9078 11.0269 23.8896 11.0522L23.6547 11.3786C23.5949 11.4616 23.4714 11.4618 23.4114 11.3789L23.1679 11.0423C23.1489 11.0162 23.122 10.9968 23.0911 10.9871L22.6947 10.863C22.597 10.8325 22.558 10.7153 22.6177 10.6322L22.8527 10.3059C22.8709 10.2806 22.8807 10.2502 22.8809 10.219L22.8833 9.78682C22.8838 9.68655 22.9807 9.61505 23.0767 9.64407L23.4675 9.76226C23.4957 9.77076 23.5257 9.77082 23.5538 9.76243L23.9813 9.63498Z" fill="#FF9740"/>
<path d="M5.81909 8.25928C5.88786 8.19202 6.00128 8.20596 6.05171 8.28788L6.20569 8.53801C6.21977 8.56088 6.23974 8.57955 6.2635 8.59208L6.4672 8.69942C6.55505 8.74572 6.57448 8.86307 6.50624 8.93521L6.32442 9.1274C6.303 9.15004 6.28917 9.17879 6.28484 9.20965L6.25192 9.44443C6.23772 9.54574 6.12849 9.60342 6.03681 9.55802L5.81584 9.4486C5.78688 9.43426 5.75405 9.42965 5.72226 9.43548L5.47971 9.4799C5.37908 9.49834 5.28993 9.41284 5.30414 9.31153L5.33706 9.07676C5.34139 9.04589 5.33599 9.01445 5.32163 8.98679L5.20116 8.75486C5.15494 8.66587 5.20736 8.55747 5.30582 8.53844L5.54554 8.49212C5.57439 8.48654 5.60096 8.47262 5.62196 8.45208L5.81909 8.25928Z" fill="#FF9740"/>
<path d="M7.94008 11.6193C7.96674 11.5269 8.07229 11.4831 8.15655 11.5295L8.50048 11.7189C8.524 11.7318 8.55058 11.7382 8.57742 11.7374L8.89629 11.7276C8.99555 11.7246 9.07031 11.8171 9.04651 11.9135L8.95997 12.2641C8.9525 12.2943 8.95464 12.3262 8.96609 12.3552L9.0875 12.6624C9.12509 12.7575 9.05851 12.8616 8.95637 12.8673L8.6149 12.8864C8.58263 12.8882 8.5518 12.9004 8.52701 12.9211L8.26473 13.1406C8.18628 13.2062 8.06656 13.1758 8.02896 13.0807L7.90756 12.7735C7.89611 12.7445 7.87591 12.7198 7.84977 12.7028L7.54964 12.5078C7.46555 12.4532 7.4577 12.333 7.53397 12.2679L7.79023 12.0492C7.81258 12.0301 7.82883 12.0049 7.83697 11.9767L7.94008 11.6193Z" fill="#FF9740"/>
<path d="M1.92375 11.549C1.93093 11.4531 2.02528 11.3886 2.11726 11.4168L2.62305 11.5717C2.64873 11.5796 2.67606 11.5804 2.70217 11.5741L3.13128 11.4706C3.22782 11.4473 3.31993 11.5226 3.31636 11.6218L3.29861 12.1158C3.29749 12.1469 3.3061 12.1776 3.32324 12.2036L3.57571 12.5869C3.63198 12.6724 3.5881 12.7878 3.48929 12.8143L3.03184 12.937C3.00062 12.9454 2.97294 12.9636 2.95292 12.989L2.6596 13.3608C2.59624 13.4411 2.47283 13.4359 2.41656 13.3504L2.1641 12.9671C2.14695 12.9411 2.12213 12.9211 2.09307 12.9098L1.63524 12.7322C1.54175 12.6959 1.50948 12.5799 1.57081 12.5006L1.85514 12.1329C1.87311 12.1096 1.88386 12.0816 1.88605 12.0523L1.92375 11.549Z" fill="#FF9740"/>
<path d="M15.9722 14.9509C16.0296 14.8738 16.1438 14.8698 16.2064 14.9429L16.3991 15.1676C16.4166 15.188 16.4392 15.2034 16.4646 15.212L16.6846 15.2869C16.7786 15.3189 16.8161 15.4318 16.76 15.5137L16.6091 15.7338C16.5915 15.7595 16.5823 15.7901 16.5829 15.8212L16.5871 16.0604C16.5889 16.1627 16.49 16.2368 16.3923 16.2062L16.1548 16.132C16.124 16.1224 16.0909 16.123 16.0604 16.1337L15.8256 16.2162C15.7291 16.2501 15.6277 16.1796 15.6259 16.0773L15.6217 15.8381C15.6212 15.8069 15.6109 15.7767 15.5924 15.7516L15.4358 15.5395C15.3763 15.4588 15.4111 15.3436 15.5054 15.3094L15.737 15.2255C15.7646 15.2155 15.7887 15.1976 15.8062 15.174L15.9722 14.9509Z" fill="#FF9740"/>
<path d="M21.4497 16.6155C21.5262 16.5572 21.637 16.5849 21.6771 16.6723L21.811 16.9648C21.8221 16.9892 21.8397 17.0102 21.8617 17.0255L22.0714 17.1713C22.1529 17.228 22.1579 17.3468 22.0813 17.4101L21.8564 17.596C21.8323 17.6158 21.8151 17.6427 21.807 17.6728L21.7388 17.9272C21.7124 18.026 21.5969 18.0699 21.5115 18.0137L21.283 17.8633C21.256 17.8455 21.224 17.8369 21.1917 17.8388L20.9186 17.8548C20.8165 17.8608 20.7385 17.7651 20.765 17.6663L20.8331 17.4118C20.8412 17.3817 20.8397 17.3499 20.8288 17.3206L20.7281 17.0502C20.6931 16.9562 20.7583 16.855 20.8584 16.8482L21.1281 16.8297C21.1574 16.8277 21.1855 16.8171 21.2089 16.7993L21.4497 16.6155Z" fill="#FF9740"/>
<path d="M8.55257 18.1167C8.57377 18.0229 8.67657 17.973 8.76341 18.0144L9.212 18.2282C9.23625 18.2398 9.26315 18.2446 9.2899 18.2422L9.70092 18.2054C9.79983 18.1966 9.87988 18.2846 9.86176 18.3822L9.7773 18.8374C9.77161 18.8681 9.77561 18.8997 9.78875 18.928L9.96938 19.3168C10.0125 19.4096 9.9521 19.5173 9.85047 19.529L9.41069 19.5796C9.37858 19.5833 9.34852 19.5972 9.32499 19.6194L9.00271 19.9229C8.92824 19.993 8.80695 19.9696 8.76384 19.8768L8.58321 19.488C8.57008 19.4598 8.54847 19.4363 8.52138 19.4209L8.12183 19.1934C8.03469 19.1438 8.01982 19.0243 8.09215 18.9548L8.40575 18.6537C8.42694 18.6334 8.44169 18.6072 8.44817 18.5786L8.55257 18.1167Z" fill="#FF9740"/>
<path d="M4.33634 15.0884C4.35755 14.9946 4.46035 14.9447 4.54718 14.9861L4.86661 15.1383C4.89085 15.1499 4.91776 15.1547 4.94451 15.1523L5.2276 15.127C5.32651 15.1181 5.40656 15.2061 5.38845 15.3037L5.32947 15.6216C5.32379 15.6522 5.32779 15.6839 5.34092 15.7121L5.46469 15.9786C5.50779 16.0714 5.44742 16.1791 5.34578 16.1908L5.04318 16.2256C5.01107 16.2293 4.98101 16.2432 4.95747 16.2654L4.73572 16.4742C4.66125 16.5443 4.53996 16.521 4.49685 16.4282L4.37308 16.1618C4.35995 16.1335 4.33834 16.11 4.31125 16.0946L4.03312 15.9363C3.94598 15.8867 3.93111 15.7672 4.00344 15.6977L4.22023 15.4895C4.24142 15.4692 4.25617 15.4431 4.26265 15.4144L4.33634 15.0884Z" fill="#FF9740"/>
<path d="M4.15964 20.3342C4.14545 20.239 4.22322 20.1553 4.31915 20.1625L4.67202 20.1888C4.6988 20.1908 4.72563 20.1855 4.7497 20.1736L5.00443 20.0475C5.09344 20.0035 5.1999 20.0565 5.21836 20.1541L5.27842 20.4717C5.28421 20.5024 5.2994 20.5304 5.32187 20.552L5.53368 20.7556C5.60744 20.8265 5.59016 20.9488 5.49965 20.9965L5.23015 21.1384C5.20155 21.1535 5.17858 21.1774 5.16467 21.2065L5.03353 21.4815C4.98949 21.5738 4.86796 21.5959 4.7942 21.525L4.58239 21.3215C4.55992 21.2999 4.53128 21.2858 4.50045 21.2812L4.18386 21.2343C4.08467 21.2196 4.02756 21.1136 4.06984 21.0227L4.19659 20.7501C4.20898 20.7235 4.21328 20.6938 4.20894 20.6648L4.15964 20.3342Z" fill="#FF9740"/>
<path d="M7.17799 23.2624C7.20307 23.1695 7.30785 23.1239 7.3929 23.1688L7.75893 23.3623C7.78268 23.3749 7.80936 23.3808 7.83619 23.3795L8.17403 23.3634C8.27323 23.3586 8.34956 23.4499 8.32742 23.5467L8.24221 23.9191C8.23526 23.9494 8.23795 23.9812 8.24989 24.01L8.38428 24.3338C8.4235 24.4283 8.3587 24.5334 8.25667 24.5409L7.89498 24.5673C7.86274 24.5697 7.83212 24.5824 7.80769 24.6035L7.53359 24.841C7.45627 24.908 7.33605 24.8796 7.29683 24.7851L7.16245 24.4614C7.1505 24.4326 7.12988 24.4083 7.10346 24.3917L6.78231 24.1908C6.6973 24.1377 6.6874 24.0177 6.76255 23.9513L7.03008 23.7149C7.0521 23.6954 7.06792 23.6699 7.07558 23.6416L7.17799 23.2624Z" fill="#FF9740"/>
<path d="M21.4122 22.5208C21.4887 22.4625 21.5996 22.4902 21.6396 22.5776L21.8069 22.9431C21.8181 22.9675 21.8356 22.9885 21.8577 23.0038L22.1265 23.1907C22.208 23.2474 22.213 23.3662 22.1364 23.4295L21.8511 23.6653C21.827 23.6852 21.8098 23.712 21.8017 23.7421L21.714 24.0697C21.6875 24.1685 21.572 24.2124 21.4866 24.1562L21.1934 23.9631C21.1664 23.9454 21.1344 23.9368 21.1021 23.9387L20.7517 23.9593C20.6496 23.9653 20.5716 23.8695 20.598 23.7707L20.6858 23.4431C20.6939 23.413 20.6924 23.3811 20.6815 23.3519L20.5534 23.008C20.5184 22.914 20.5837 22.8129 20.6837 22.806L21.0286 22.7824C21.0579 22.7804 21.0859 22.7698 21.1093 22.752L21.4122 22.5208Z" fill="#FF9740"/>
<path d="M15.8685 24.1681C15.8764 24.0722 15.9712 24.0085 16.063 24.0373L16.2969 24.111C16.3225 24.119 16.3498 24.1201 16.376 24.114L16.5578 24.0716C16.6545 24.049 16.746 24.125 16.7417 24.2242L16.7322 24.4411C16.7308 24.4723 16.7392 24.5031 16.7562 24.5292L16.8601 24.6898C16.9158 24.7756 16.871 24.8908 16.772 24.9165L16.5787 24.9667C16.5474 24.9749 16.5196 24.9929 16.4994 25.0181L16.3744 25.174C16.3105 25.2538 16.1871 25.2476 16.1315 25.1617L16.0275 25.0012C16.0106 24.975 15.9859 24.9548 15.9569 24.9433L15.7581 24.8644C15.6649 24.8274 15.6335 24.7111 15.6954 24.6323L15.8181 24.4761C15.8363 24.453 15.8472 24.4251 15.8496 24.3958L15.8685 24.1681Z" fill="#FF9740"/>
<rect x="3.41406" y="14.7866" width="18.9621" height="2.60998" fill="black" fill-opacity="0.1"/>
<rect x="9.56934" y="8.20508" width="6.36557" height="5.79287" fill="#FFE135"/>
</svg>
