<svg width="34" height="31" viewBox="0 0 34 31" fill="none" xmlns="http://www.w3.org/2000/svg">
<path d="M16.3283 7.86305C17.8547 6.63118 19.9148 5.42616 22.1084 5.16728C23.2854 5.02837 24.5041 5.16191 25.6889 5.71342C26.8729 6.26454 27.9936 7.21925 28.9973 8.6773C29.9362 10.0412 30.1442 11.8223 29.8384 13.7081C29.5317 15.5985 28.7021 17.6465 27.4918 19.6109C25.0752 23.5332 21.079 27.2199 16.4627 28.6939C16.3649 28.7251 16.2583 28.7317 16.1524 28.7084L16.2598 28.2201L16.1524 28.7084C12.6281 27.9334 8.45765 24.7671 5.61097 21.0098C4.18086 19.1222 3.05937 17.0533 2.51925 15.0156C1.97865 12.9761 2.01329 10.9344 2.94909 9.1515C3.84773 7.43933 5.03547 6.35261 6.35991 5.74405C7.67827 5.13829 9.09595 5.02261 10.4372 5.18862C11.7773 5.35449 13.0583 5.80328 14.1255 6.34804C15.0232 6.80624 15.7932 7.34441 16.3283 7.86305Z" fill="#E02D65" stroke="white"/>
<mask id="mask0_48_1069" style="mask-type:alpha" maskUnits="userSpaceOnUse" x="2" y="5" width="28" height="24">
<path d="M28.5854 8.96081C24.7363 3.36925 19.3932 5.91942 16.3619 8.48386C16.3192 8.51997 16.2581 8.51623 16.2212 8.4742C14.3301 6.31817 6.80087 2.88869 3.39181 9.38387C-0.052695 15.9466 9.52752 26.7397 16.2598 28.2201C16.2768 28.2238 16.294 28.2229 16.3106 28.2176C25.2636 25.3589 31.9473 13.8447 28.5854 8.96081Z" fill="#E02D65"/>
</mask>
<g mask="url(#mask0_48_1069)">
<path d="M26.1414 6.3535C22.3361 0.750149 17.1213 3.25698 14.1684 5.79557C14.1255 5.83243 14.0635 5.82863 14.0266 5.78584C12.158 3.62185 4.76369 0.153563 1.46768 6.6116C-1.86323 13.138 7.58962 23.9705 14.1933 25.4925C14.2106 25.4965 14.2281 25.4956 14.2451 25.4902C22.9951 22.6951 29.466 11.249 26.1414 6.3535Z" fill="#FF4D83"/>
</g>
<path d="M5.3667 12.0387C5.60162 10.6864 6.90001 8.16751 10.2142 8.91013" stroke="white" stroke-width="1.5" stroke-linecap="round"/>
<circle cx="12.4646" cy="9.64286" r="0.866984" fill="white"/>
</svg>
