<svg width="26" height="25" viewBox="0 0 26 25" fill="none" xmlns="http://www.w3.org/2000/svg">
<circle cx="12.9817" cy="11.9817" r="11.4817" fill="#FFCF00" stroke="black"/>
<path d="M2.99694 17.9723C2.68323 16.09 2.04095 14.6184 1.45724 13.5576C1.26793 13.2135 1.51344 12.7861 1.90336 12.8329C7.25727 13.4754 8.3543 19.8496 8.21425 23.5002C8.20419 23.7623 7.98576 23.9632 7.72344 23.9632H3.49694C3.2208 23.9632 2.9975 23.7403 3.00544 23.4643C3.04839 21.9714 3.23068 19.3747 2.99694 17.9723Z" fill="#FFCF00" stroke="black"/>
<path d="M23.0031 17.9723C23.3168 16.09 23.959 14.6184 24.5428 13.5576C24.7321 13.2135 24.4866 12.7861 24.0966 12.8329C18.7427 13.4754 17.6457 19.8496 17.7858 23.5002C17.7958 23.7623 18.0142 23.9632 18.2766 23.9632H22.5031C22.7792 23.9632 23.0025 23.7403 22.9946 23.4643C22.9516 21.9714 22.7693 19.3747 23.0031 17.9723Z" fill="#FFCF00" stroke="black"/>
<path d="M9.60476 10.4608C8.68225 12.045 7.0646 12.5625 6.0637 11.9797C5.06279 11.3969 4.71447 9.73458 5.63698 8.15033C6.55949 6.56608 8.17713 6.04856 9.17804 6.63139C10.1789 7.21422 10.5273 8.87652 9.60476 10.4608Z" fill="white" stroke="black"/>
<path d="M16.0212 10.4608C16.9437 12.045 18.5614 12.5625 19.5623 11.9797C20.5632 11.3969 20.9115 9.73458 19.989 8.15033C19.0665 6.56608 17.4488 6.04856 16.4479 6.63139C15.447 7.21422 15.0987 8.87652 16.0212 10.4608Z" fill="white" stroke="black"/>
<rect x="9.78662" y="11.9819" width="6.39022" height="9.58533" rx="3.19511" fill="black"/>
<path d="M12.9818 12.3813C11.7836 12.3813 10.9849 13.1801 10.9849 13.5795C10.9849 13.9789 11.7836 14.3783 12.9818 14.3783C14.18 14.3783 14.9788 13.9789 14.9788 13.5795C14.9788 13.1801 14.18 12.3813 12.9818 12.3813Z" fill="white"/>
<path d="M15.3781 19.1707C15.3781 20.4942 14.3052 21.1678 12.9818 21.1678C11.6583 21.1678 10.5854 20.4942 10.5854 19.1707C10.5854 17.8473 11.3842 16.7744 12.9818 16.7744C14.5793 16.7744 15.3781 17.9725 15.3781 19.1707Z" fill="#D50B00"/>
</svg>
