<svg width="70" height="75" viewBox="0 0 70 75" fill="none" xmlns="http://www.w3.org/2000/svg">
<path d="M60.4546 17.8493H25.4545V14.8742C25.4564 13.1141 26.0142 11.3936 27.0582 9.92887C28.1021 8.46412 29.5855 7.32034 31.3222 6.64111C33.0589 5.96188 34.9715 5.77746 36.8199 6.11102C38.6683 6.44458 40.3701 7.28125 41.7117 8.51599C42.3017 9.07934 42.8147 9.70889 43.239 10.3903C43.6552 11.0767 44.346 11.5805 45.1594 11.7907C45.9729 12.0009 46.8423 11.9004 47.5765 11.5113C48.3106 11.1221 48.8494 10.4762 49.0742 9.71563C49.2991 8.95507 49.1916 8.14214 48.7754 7.45568C48.0727 6.31951 47.2198 5.27068 46.2366 4.33397C44.0081 2.2602 41.1726 0.849986 38.0879 0.281213C35.0032 -0.28756 31.8074 0.0105905 28.9037 1.13805C26 2.26552 23.5184 4.17179 21.7721 6.6164C20.0257 9.06101 19.0928 11.9344 19.0909 14.8742V17.8493H9.54546C7.0147 17.8519 4.58839 18.793 2.79887 20.4663C1.00935 22.1395 0.00277925 24.4081 0 26.7744V65.4499C0.00277925 67.8162 1.00935 70.0848 2.79887 71.758C4.58839 73.4313 7.0147 74.3724 9.54546 74.375H60.4546C62.9853 74.3724 65.4116 73.4313 67.2011 71.758C68.9907 70.0848 69.9972 67.8162 70 65.4499V26.7744C69.9972 24.4081 68.9907 22.1395 67.2011 20.4663C65.4116 18.793 62.9853 17.8519 60.4546 17.8493ZM38.1818 50.0264V56.5248C38.1818 57.3138 37.8466 58.0705 37.2499 58.6285C36.6532 59.1864 35.8439 59.4998 35 59.4998C34.1561 59.4998 33.3468 59.1864 32.7501 58.6285C32.1534 58.0705 31.8182 57.3138 31.8182 56.5248V50.0264C29.6952 49.3246 27.906 47.9437 26.7666 46.1277C25.6273 44.3117 25.2112 42.1775 25.592 40.1025C25.9728 38.0274 27.1259 36.145 28.8475 34.7879C30.569 33.4309 32.7483 32.6866 35 32.6866C37.2517 32.6866 39.431 33.4309 41.1526 34.7879C42.8741 36.145 44.0272 38.0274 44.408 40.1025C44.7888 42.1775 44.3727 44.3117 43.2334 46.1277C42.094 47.9437 40.3048 49.3246 38.1818 50.0264ZM38.1818 41.6496C38.1818 42.238 37.9952 42.8132 37.6456 43.3024C37.296 43.7917 36.799 44.173 36.2176 44.3982C35.6362 44.6233 34.9965 44.6823 34.3793 44.5675C33.762 44.4527 33.1951 44.1693 32.7501 43.7533C32.3051 43.3372 32.0021 42.8071 31.8793 42.23C31.7566 41.6529 31.8196 41.0547 32.0604 40.5111C32.3012 39.9675 32.709 39.5028 33.2323 39.1759C33.7555 38.849 34.3707 38.6745 35 38.6745C35.8436 38.6753 36.6525 38.9889 37.249 39.5467C37.8456 40.1045 38.1811 40.8608 38.1818 41.6496Z" fill="#FF9292"/>
</svg>
