<svg width="58" height="58" viewBox="0 0 58 58" fill="none" xmlns="http://www.w3.org/2000/svg">
<path d="M21.6022 21.242C22.0954 21.242 22.5886 20.9958 22.8352 20.7495L27.0274 16.5626V31.586C27.0274 32.5711 27.7672 33.5563 29.0002 33.5563C30.2332 33.5563 30.973 32.8174 30.973 31.586V16.3163L35.1651 20.5032C35.6583 20.7495 35.9049 20.9958 36.3981 20.9958C36.8913 20.9958 37.3845 20.7495 37.6311 20.5032C38.3709 19.7643 38.3709 18.5329 37.6311 17.7941L30.2332 10.4055C29.9866 10.1592 29.74 10.1592 29.74 9.91295C29.4934 9.91295 29.2468 9.66666 29.0002 9.66666C28.7536 9.66666 28.507 9.66666 28.2604 9.91295C28.0138 9.91295 27.7672 10.1592 27.7672 10.4055L20.3692 17.7941C19.6294 18.5329 19.6294 19.7643 20.3692 20.5032C20.6158 20.9958 21.109 21.242 21.6022 21.242Z" fill="#FF9292"/>
<path d="M51.194 29.6157H38.6175L32.9457 35.2803C32.4525 35.7728 31.7128 36.2654 31.2196 36.5117C30.4798 36.758 29.74 37.0042 29.0002 37.0042C28.2604 37.0042 27.5206 36.758 26.7808 36.5117C26.041 36.2654 25.5478 35.7728 25.0546 35.2803L19.3828 29.6157H6.80629C5.81989 29.6157 4.8335 30.3546 4.8335 31.586V40.6985C4.8335 44.1465 7.54608 47.1019 10.9985 47.3482C16.177 47.8408 23.3284 48.3333 29.0002 48.3333C34.6719 48.3333 41.8233 47.8408 47.0019 47.3482C50.4542 47.1019 53.1668 44.1465 53.1668 40.6985V31.586C53.1668 30.8471 52.1804 29.6157 51.194 29.6157Z" fill="#FF9292"/>
</svg>
