<svg width="40" height="50" viewBox="0 0 40 50" fill="none" xmlns="http://www.w3.org/2000/svg">
<path d="M20.0001 24.507C26.5709 24.507 31.8975 19.2075 31.8975 12.6702C31.8975 6.13298 26.5709 0.833496 20.0001 0.833496C13.4293 0.833496 8.10265 6.13298 8.10265 12.6702C8.10265 19.2075 13.4293 24.507 20.0001 24.507Z" fill="#AFAFA5"/>
<path d="M26.1967 29.4392H13.8035C6.61547 29.4392 0.666748 35.3575 0.666748 42.5089C0.666748 44.2351 1.41034 45.7147 2.89752 46.4545C5.12829 47.6875 10.0856 49.1671 20.0001 49.1671C29.9146 49.1671 34.8719 47.6875 37.1026 46.4545C38.342 45.7147 39.3334 44.2351 39.3334 42.5089C39.3334 35.111 33.3847 29.4392 26.1967 29.4392Z" fill="#AFAFA5"/>
</svg>
