<svg width="23" height="24" viewBox="0 0 23 24" fill="none" xmlns="http://www.w3.org/2000/svg">
<path d="M11.3146 1.45847C11.382 1.29178 11.618 1.29178 11.6854 1.45847L14.4409 8.27199C14.4695 8.34284 14.5361 8.39116 14.6123 8.39652L21.9438 8.91164C22.1232 8.92424 22.1961 9.14869 22.0584 9.26432L16.4299 13.9904C16.3713 14.0396 16.3459 14.1178 16.3644 14.1919L18.1401 21.3238C18.1835 21.4983 17.9926 21.637 17.84 21.5418L11.6059 17.6491C11.5411 17.6087 11.4589 17.6087 11.3941 17.6491L5.15995 21.5418C5.00744 21.637 4.81651 21.4983 4.85995 21.3238L6.63561 14.1919C6.65407 14.1178 6.62866 14.0396 6.57014 13.9904L0.941586 9.26432C0.803886 9.14869 0.876815 8.92424 1.05618 8.91164L8.38771 8.39652C8.46394 8.39116 8.53046 8.34284 8.55911 8.27199L11.3146 1.45847Z" fill="#EBEBE6"/>
<path d="M11.3146 0.45847C11.382 0.291781 11.618 0.291782 11.6854 0.458471L14.4409 7.27199C14.4695 7.34284 14.5361 7.39116 14.6123 7.39652L21.9438 7.91164C22.1232 7.92424 22.1961 8.14869 22.0584 8.26432L16.4299 12.9904C16.3713 13.0396 16.3459 13.1178 16.3644 13.1919L18.1401 20.3238C18.1835 20.4983 17.9926 20.637 17.84 20.5418L11.6059 16.6491C11.5411 16.6087 11.4589 16.6087 11.3941 16.6491L5.15995 20.5418C5.00744 20.637 4.81651 20.4983 4.85995 20.3238L6.63561 13.1919C6.65407 13.1178 6.62866 13.0396 6.57014 12.9904L0.941586 8.26432C0.803886 8.14869 0.876815 7.92424 1.05618 7.91164L8.38771 7.39652C8.46394 7.39116 8.53046 7.34284 8.55911 7.27199L11.3146 0.45847Z" fill="white"/>
</svg>
