<svg width="18" height="18" viewBox="0 0 18 18" fill="none" xmlns="http://www.w3.org/2000/svg">
<path fill-rule="evenodd" clip-rule="evenodd" d="M0.603929 17.3956C0.274602 17.0663 0.274602 16.5323 0.603929 16.203L7.87838 8.92853L0.603928 1.65407C0.274601 1.32475 0.274601 0.790802 0.603928 0.461475C0.933255 0.132149 1.4672 0.132149 1.79653 0.461475L9.07098 7.73593L16.3454 0.461475C16.6748 0.132148 17.2087 0.132148 17.538 0.461475C17.8674 0.790801 17.8674 1.32475 17.538 1.65407L10.2636 8.92853L17.538 16.203C17.8674 16.5323 17.8674 17.0663 17.538 17.3956C17.2087 17.7249 16.6748 17.7249 16.3454 17.3956L9.07098 10.1211L1.79653 17.3956C1.4672 17.7249 0.933256 17.7249 0.603929 17.3956Z" fill="white"/>
</svg>
